<svg xmlns="http://www.w3.org/2000/svg" viewBox="0 0 544.91 544.91"><defs><style>.a{fill:none;}.b{fill:#f3c615;}.c{fill:#ff0;}</style></defs><rect class="a" width="544.91" height="544.91"/><path class="b" d="M474,204a83.43,83.43,0,0,0-53.49-2.29l-1.14.38-28.56,7.05,15.42-25.51,2.1-3.24c52.45-89.78-71-175.76-136.68-95.94C202.45,1.89,76.88,96.85,138.39,186.14l15.42,23.42L131,203.85C25.25,167.68-30.95,320.32,73.1,360.89,13,464.26,183.27,546.44,234.51,438.56c0,0,5.71-14.51,11-28.9a9.48,9.48,0,0,0-9.93-12.7C54,417.77,131,210.32,131,210.32c-26,89.58-6.63,131.39,24,149.92,46.06,27.86,104.8-7,103.53-60.76-1.11-47.27-5.33-93.35-5.33-93.35S231.27,164,206,153.64c32.77,12.21,59.09,41.37,59.61,41.94l.11-.12,6.78-75.56,5.26,75.78s26.61-29.71,59.7-42c-25.3,10.39-47.21,52.49-47.21,52.49l-.3.1c-.06.64-4.2,46.08-5.32,92.84-1.38,57.91,65.88,92,111,55.66,25.84-20.84,39.82-62.8,16.12-144.41,0,0,77,207.49-104.7,186.62a9.49,9.49,0,0,0-10.14,12.35c4.68,14.35,9.7,29.27,9.7,29.27,45.55,112,219.45,29.63,162.87-76.72C543.45,339.55,547.56,231.19,474,204Z"/><path class="c" d="M277.72,195.71v0Z"/></svg>