<svg xmlns="http://www.w3.org/2000/svg" viewBox="0 0 544.91 544.91"><defs><style>.a{fill:none;}.b{fill:#bdbfbe;}</style></defs><rect class="a" width="544.91" height="544.91"/><path class="b" d="M312.7,313.84c29.15,45.64,71.2,85.73,82,140.81,17.64,71.18-70.78,107.25-118,56.82-15.95-6.5-39.4,31.26-68.36,25.24-72.35-6.77-87.7-95.8-35.62-139.57,19.41-28.65,43-55.28,60.09-85.13C176.48,339.43,119,440.25,46.59,396.39-11.56,357.09,8.77,314.44,32,266.82-6,229-.36,159.57,57.37,147.37c55.05-26.86,225.09,144.81,145,41.48-26.59-39-61.5-81-54.71-131.35C159.55-.56,229-6.32,267.3,31.46c47.94-22,83.08-43.94,126.58,11.2,45.4,61.82-32.19,117.77-64.45,165.24-53.1,68.58,95.71-70.16,124.68-67.75,67.53-10.51,111.7,80.31,57.6,125.4-5.9,14.83,19,30.17,20.72,47,16.93,35.57-15,80.39-52.21,83.21C413.34,400.92,365.29,338.75,312.7,313.84Z"/></svg>