<svg xmlns="http://www.w3.org/2000/svg" viewBox="0 0 544.91 544.91"><defs><style>.a{fill:none;}.b{fill:#6f3599;}</style></defs><rect class="a" width="544.91" height="544.91"/><path class="b" d="M400.15,289.26c9.32,3.64,17.44,7.11,25.78,10,10.71,3.67,17.95,10.34,22.05,21.1,4.52,11.89,11.08,21.62,25.53,24,4.86.79,8.95,6.45,13.33,9.94,4.67,3.71,9.12,7.71,13.93,11.21,10.4,7.58,10.94,16.54,1.6,25.64-8.1,7.9-17.47,11.41-28.82,10.16-29.64-3.27-59-2.36-88.32,4.16-10.67,2.37-22.39,1.28-33.46.14-7.84-.8-12.34,1.15-11.53,8.85,1.84,17.64-9.1,25.82-21.28,35.57-7.65,6.12-11,18-15.24,27.84-7.3,17.06-12.75,35-20.88,51.58-5.09,10.42-14.46,10.62-20.24.41-7.18-12.72-11.81-26.91-17.18-40.61-4.09-10.44-6.89-21.46-11.69-31.54-2.59-5.46-7.33-11.09-12.57-13.84-9.74-5.12-13.31-12.53-14.2-22.81-1.19-13.87-4.82-15-18.53-14.56s-27.78-2.6-41.71-3.35c-20.67-1.12-41.39-2.31-62.07-2.06-15.23.18-30.31,2.78-42.61-9.73-8.75-8.91-8.17-18.81,2-25.66,4.63-3.12,8.75-7,13.41-10.1,7.23-4.78,14.79-9.07,22.09-13.76,7.8-5,16.65-8.55,18.74-19.74,2.55-13.62,12.7-19.1,25.45-23.46,24-8.23,25.23-5.78,9-26.85-5.15-6.66-10.19-15-11.15-23-2.94-24.68-16.27-43.82-30-63-5.1-7.15-10.86-13.87-15.58-21.26-4.84-7.56-2.2-14,6.09-17.84,16.9-7.83,31.52-.56,46.12,6.8,22.14,11.15,44.07,22.73,66.44,33.38,6.46,3.08,14.06,4.39,21.28,5.11,18.5,1.86,36,4.81,49.63,19.69,8.07,8.83,10.39,7.39,17.89-2.17,3.69-4.7,9.19-9.24,14.77-11a140.26,140.26,0,0,1,32.92-6.24c17.42-1,31-10.86,45.93-17.59,9.45-4.25,18.18-10.08,27.5-14.68,11-5.43,22.09-10.87,33.57-15.15a31.73,31.73,0,0,1,17.39-1.41c16.78,4,19.54,14.81,9.43,28.74-12.58,17.34-24.24,35.35-36,53.28a16.84,16.84,0,0,0-2.6,10c1.81,19.07-8,32.86-19.9,45.86C404.67,283.3,403.09,285.55,400.15,289.26ZM300.5,333c4.67,1.7,7.83,3.05,11.1,4,7.65,2.23,15.25,5.05,23.08,6.17,8.26,1.18,13.68-2.58,15.91-11.59,5.46-22.11-2.63-41-25.1-56.4-31.05-21.23-74.66-20.76-105.62.64-17.8,12.3-26.39,28.58-24.19,50.3,1.14,11.19,7.5,17.61,18.67,16.65,6.71-.58,13.44-3,19.75-5.64,6.51-2.68,10.46-2.72,12.09,5.4a182.94,182.94,0,0,0,6.13,22.35c3.5,10.45,12.58,13.31,22,12.71,8.66-.57,17.63-2.82,19.7-14C295.76,354,298,344.47,300.5,333Z"/><path class="b" d="M340.36,142.75c.16,10.05-3.74,12.61-11.77,8.39-7.4-3.88-13.6-8.89-14.72-18-.21-1.71-.62-3.8-1.73-4.92-3.33-3.35-7.05-6.32-10.62-9.43-2.36,4-5.68,7.66-6.86,11.94C292,140.37,291.93,151,288,160c-7,16.25-19.72,17.1-28.78,1.91-4.47-7.49-4.94-17.27-8-25.74-1.74-4.84-5-9.12-7.62-13.65-3.75,3.63-7.8,7-11.18,11-4.64,5.42-8.24,11.85-13.4,16.63-2,1.82-7.8,1.49-10.49-.14-2.06-1.25-3.27-6.38-2.61-9.27,6.32-27.73,11.37-55.93,20.34-82.82,7.14-21.38,21.49-39.18,42.82-49.53,1.91-.92,5-1.17,6.81-.24C296.54,18.76,312.44,34,318.76,56.91c7.45,27,13.95,54.35,20.84,81.55C340,140.16,340.22,141.92,340.36,142.75Z"/></svg>