<svg xmlns="http://www.w3.org/2000/svg" viewBox="0 0 544.91 544.91"><defs><style>.a{fill:none;}.b{fill:#fa771f;}</style></defs><rect class="a" width="544.91" height="544.91"/><path class="b" d="M284.45,410.22c1.4,36.07,15.88,70.38,24,105.36,10.95,32.19-45.65,14.31-63.21,18.66-12.51-.08-16.76-5.89-10.31-16.36,19-34.41,27.53-73.84,28.44-112.42l-4.26-1.73c-27.81,35-70.48,76.33-120,64C120.7,457.07,45.51,458.62,69,425.83c8.09-20.57,14-43,25.69-62.09,11.22-18.92,10.27-17.94-9.07-27.24C29.38,317.37,25.7,252.31,8,203.59c-13.88-27.27,62.6-20.6,79.29-27.7,38.11-7.17,67.84,14.12,99.32,31.9C166.21,124,184.84,86.25,249,33c9.88-6.68,17.66-33.64,31.27-19.22,60.54,56.22,112.56,105.41,78.79,194,5,3.8,11.91-3.36,16.33-6.17,33.29-31.39,71.94-30.67,112.71-19.89,16.1,8.16,58.09-4,49.28,24.81-14.26,52.09-25.84,113.78-83.7,133.25-8.59,3.65-9.71,8.11-6.22,16.45,10.63,25.43,17.17,52.64,33.93,75.1,5.17,8.2,4.72,13.22-6,16.07C389.69,476.63,350.17,484,289.23,407.28Z"/></svg>