<svg xmlns="http://www.w3.org/2000/svg" viewBox="0 0 544.91 544.91"><defs><style>.a{fill:none;}.b{fill:#e72035;}</style></defs><rect class="a" width="544.91" height="544.91"/><path class="b" d="M447.68,320.94C342.2,310.8,326.42,430.31,309.64,508.8c-10.56,34.91-63.19,36.55-70-2-26.37-73-28.36-190-132.87-185.36-31.54,6.38-51.47-12.11-42.85-42,12.19-38-53.55-53-25.7-88.14,46.58-28.81.06-86.5,50.34-101,44.17.44,40.74-62.41,82-61.47,111.6,6.23,41.31-47.62,177,1.83C414.42,15,410.21,85.3,473.73,99.77c26.48,14.75,1,49,18.33,69.29,8.09,15.83,30.48,33.49,17.75,51.94C467.47,252.3,510.94,327.13,447.68,320.94ZM374,74.82c-65.42,61.25-101.71,218.45-85.21,309.39,37.94-90,82.56-143.06,178.75-174.66-48.47-11.15-101.33,22-134.66,55.55C302.53,275.51,370.56,97.28,374,74.82ZM78.05,208.14c79.32,31.16,164.54,90.23,174.53,184.23,25.8,4.18-1.24-124-4.54-156.62-6.49-36.14-39.78-143.29-72.21-152.3C261.08,402.19,222.55,197,78.05,208.14Zm207.12-65.78c-1.63-12-1-56.6-18.66-34C245.93,145.41,280.51,231.64,285.17,142.36ZM142.26,160.5c2.6,14.75,28.62,41.79,41.93,44.14C188.06,183.9,162.29,156.3,142.26,160.5Zm259.62-1.94c-17.5,3.4-34.52,23-41.21,38.7C370.82,217.32,398.94,172.76,401.88,158.56Z"/></svg>