<svg xmlns="http://www.w3.org/2000/svg" viewBox="0 0 582.95 742.5"><defs><style>.a,.d{fill:none;}.b{fill:#d9f297;}.c{fill:#97e9ff;}.d{stroke:#000;stroke-miterlimit:10;stroke-width:2px;}.e{fill:#067dff;}.f{fill:#0557bd;}.g{fill:#563b00;}</style></defs><rect class="a" width="582.95" height="742.5"/><path class="b" d="M106.23,613.63c-3.55,6,22.64,21.56,22.64,21.56S30.22,637.65,29.46,668C27.5,745.69,494.83,729,502,683.91c3.68-23.31-43-28.22-43-28.22s94.18,3.33,94.5-20.87C554.31,574.31,132.17,569.9,106.23,613.63Z"/><path class="c" d="M506,254.46c-99.22-24.56-1.41-64.58-48.43-137.53C429.2,78.72,387,60,343.65,60.51,225.75,61.81,36.21,165.68,51.83,306c5,44.67-21.56,79.72-14.51,122.63,13.5,79,125.57,99.65,183.79,104.05,97.32,69.58,329.79,46,263.05-135C546.69,379.15,576.59,293.1,506,254.46Zm-3.47,44.74c-.4-.32-1.64-1.34-1.64-1.38C501.2,297.74,501.87,298.41,502.57,299.2ZM72,417.68c.4,1.56.16,2.3,0,0Zm101.74,68.24a10.44,10.44,0,0,0-1.62-.86C171.72,484.62,173.12,485,173.78,485.92Z"/><path class="c" d="M511.72,402.14c1-.71-.51,1-.94,1A5.55,5.55,0,0,1,511.72,402.14Z"/><path class="c" d="M510.59,403.38c.74-.32,0,.34-.72.93C510.12,404,510.37,403.67,510.59,403.38Z"/><path class="c" d="M509.63,410.28c0-.3,0-.7,0-1.16C509.73,409.34,509.75,410.55,509.63,410.28Z"/><path class="c" d="M178.55,45h0Z"/><path class="c" d="M97.75,424.23c.4,1.56.16,2.3,0,0Z"/><path class="d" d="M288.11,465.55h0"/><path class="d" d="M288.11,486h0"/><path class="e" d="M348.8,246.15a11.64,11.64,0,0,0,4.94,6.21c6.07,4.32,13.07,6.09,20.31,6.9,5,.56,10.13.66,15.34,1a18.22,18.22,0,0,1-4,7.94c-4.06,5.07-9,8.82-15.5,10.29-3.2.73-6,.56-8.27-2.41-1.22-1.63-3-2.87-4.37-4.37a1.29,1.29,0,0,0-2.12-.1c-1.69,1.51-3.08,3.17-2.72,6.11-15.07-1.45-28.55-5.2-37.05-19.3.42,2.16.68,4.37,1.3,6.47a60.69,60.69,0,0,0,9.27,18.2,5.45,5.45,0,0,0,2.06,1.65,26.28,26.28,0,0,0,12,2.89c-4.26,5.3-14,5.91-23,1.73a12.81,12.81,0,0,0,1.59,3c12.66,13.41,27.12,24.23,44.69,30.45a85,85,0,0,0,44.26,3.37c.5-.09,1-.16,1.76-.28A20.73,20.73,0,0,1,407.13,337c-3.15,6.51-8.43,10.82-14.81,13.91a2.83,2.83,0,0,1-1.84.13c-9.93-2.86-19.81-5.85-29-10.71-1.24-.66-2.43-1.42-3.79-2.21-.58,2,.25,3.51,1.18,4.94,3.15,4.84,7.7,8.12,12.56,11a47,47,0,0,0,17,6.25c-4.25,2.67-18.44,2.62-26.57.11a49.86,49.86,0,0,1-22.32-14.35l-.63.27c.54,2.58,1.07,5.15,1.66,7.95l-2.88.75c13.4,9.5,26.93,17.64,44.13,18.06-.77,1.27-1.3,2.33-2,3.28s-1.54,1.72-2.63,2.91c20,2.86,39.43,1.32,58.74-3.15.08.32.2.53.15.67-4.41,10.83-11,20-20.82,26.55-9.55,6.4-19.85,7-30.4,3.51-5.42-1.77-10.53-4.49-15.77-6.8-.58-.25-1.12-.59-1.93-1-.12,3.77,1.55,6.53,3.83,8.94,4.36,4.6,9.93,6.83,16.06,7.85l1.31.22c-12.86,10.11-27.26,13.77-43,13.21,10.7,4.66,21.78,6.59,34,4.44-1.65,2.8-3,5.13-4.61,7.79,17.17-1.23,33.88-4.3,50.58-8-1.48,6.2-7.79,10-18.35,11.48,24.44,5.7,47.77,3.33,69.8-9.76,1.77,2.93,1.56,6.32,1.05,9.61a35.83,35.83,0,0,1-30.33,30.21c-8.3,1.18-16.31-.5-24-3.59l-2.15-.86a2.3,2.3,0,0,0-.52-.07,3.83,3.83,0,0,0,1.52,4.19,35.12,35.12,0,0,0,7,4.71c4.2,1.92,8.63,3.35,13.07,5a3.11,3.11,0,0,1-.68.61,46.92,46.92,0,0,1-16,4.13c-5.06.36-9.1-2.05-13-4.73-4.26-2.92-8.36-6.06-12.62-9a22.18,22.18,0,0,0-5.21-2.35,21.26,21.26,0,0,0,7.52,11.49c3.51,2.91,7.27,5.52,11,8.33a17.29,17.29,0,0,1-7.14,4.33c-7.74,2.83-15.79,3.12-23.88,2.54-4.42-.32-8.81-1-13.37-1.29l17.12,8.9c-16.56,6.61-33,4.73-49.59-.94,1,.64,1.91,1.3,2.88,1.9s2,1.18,3,1.75c10.84,6.06,22.63,9.57,34.45,13.07,5.49,1.63,11,1.42,16.52,1,11.24-.91,22.46-2.2,33.65-3.64,5-.64,9.95-2,14.92-3,1.08,3.67-.49,6.34-5.48,8.9,9,4.33,18.28,5.5,27.76,5.81s18.89-.83,27.76-4.75l.47.4a66.58,66.58,0,0,1-3.12,7.36c-6.06,10.72-14.66,19-24.68,26.06-5,3.5-10.18,3-15.57,1.6-10.73-2.73-21-6.8-31.09-11.21a5.06,5.06,0,0,0-2.12-.52l24.68,19.49c-9.78,3.24-19,7.34-29.05,7.46a71,71,0,0,1-15.33-1.82c-9.64-2-19.18-4.54-28.76-6.89a33.78,33.78,0,0,1-3.63-1.38c2.41,7.66,9,9.69,15.42,12.86a59.29,59.29,0,0,1-5.66,2.44c-8,2.54-16.38,3.54-24.74,4.19s-16.63.87-24.94,1.41a4,4,0,0,1-4.18-2.14,103.85,103.85,0,0,0-15.08-19.6c-.95-.92-2-1.74-3.3-2.88A71.16,71.16,0,0,0,304,589c-3,0-5.79.1-8.59,0-9.35-.4-18.74-.55-28.05-1.43-10.77-1-21.48-2.73-32.22-4.11-1.31-.16-1.64-.65-1.49-2a36.46,36.46,0,0,0-1-14.3c-4.28,3.33-8.43,6.68-12.72,9.86-5.2,3.88-5.26,3.84-11.58,2.5a209.15,209.15,0,0,1-32.22-9.67c-.46-.18-.89-.42-1.67-.79l6.64-3.66c8-4.45,15.86-9.22,22.38-15.81a30.28,30.28,0,0,0,6.51-9.18c-6.42,3.24-12.64,6.63-19.06,9.58-8.81,4.06-17.94,7.29-27.67,8.4-4.3.49-8.69.71-12.87-.64a180.53,180.53,0,0,0-20.06-4.92,18.93,18.93,0,0,1-4.72-1.66l1.61-.45,1.94-.55c-2.83-1.59-5.52-3-8.14-4.58-9.33-5.55-17.41-12.46-23.35-21.67a47.78,47.78,0,0,1-7.15-20.46,18.35,18.35,0,0,1,0-2.25c18,12.83,37.41,19.19,59.43,16-4.92-1.77-8.42-4.7-9.51-10.23,2.55,1,4.88,2,7.28,2.83,8.68,2.93,17.68,4.19,26.76,5,5.72.5,11.45,1,17.19,1.11a33.75,33.75,0,0,0,8-1.1c12.08-2.67,23.76-6.47,34.53-12.7,5.73-3.32,11.15-7.06,15.24-12.37a18.54,18.54,0,0,0,2.75-5.35l-12.47,5.59c6.5-9,10.78-18.41,9.46-30.32-.64,1.14-1,1.81-1.38,2.49-4.45,8.13-9.58,15.74-16.33,22.21-8.54,8.19-18.65,11.31-30.33,10.1s-22.55-5.27-32.84-10.87a3.68,3.68,0,0,1-.58-.47l3.6-6.27-.26-.31c-2.3,1.06-4.58,2.17-6.91,3.16a2.46,2.46,0,0,1-1.93.15c-4.64-3.34-9.22-6.78-14-10.32,5.5-4.54,11.69-7.94,12.76-15.78-13.45,4.71-25.84,4.85-36.62-5.63-6.58-6.4-10.1-14-9.84-22.73,1.6,1.35,3.38,2.8,5.11,4.31,6.58,5.77,14.41,9,22.78,11,10.95,2.64,22.09,3,33.29,2.33.7,0,1.4-.2,2-.28l-17.93-11,.27-.76c14.52,1.95,29.08,3.35,43.7,2.74l-12.29-10,.3-.4c3.46.55,6.91,1.2,10.39,1.62a85.08,85.08,0,0,0,35.38-3.37c4.86-1.48,9.55-3.5,14.3-5.33a5.21,5.21,0,0,0,1.94-1.24A64.38,64.38,0,0,0,265,396.47c-6.79,4.91-14.06,8.29-22.75,8a20.53,20.53,0,0,0,1.37-4.48,18.34,18.34,0,0,0-.66-4.33l-.6.06c-1.29,1.82-2.51,3.7-3.89,5.45a18.41,18.41,0,0,1-9,6.42,77.34,77.34,0,0,1-24.92,4c-2.47-.05-4.93-.52-7.83-.85,3.69-4.78,6.4-9.43,6.65-15.13-3.15,2.55-6.11,5.14-9.27,7.45-8,5.9-16.86,7.12-26.26,4-11.46-3.81-19.9-11-24.32-22.42-.46-1.18-.71-2.43-1.17-4,6,3.1,11.82,4.65,18.21,3.33a36.61,36.61,0,0,1-11.35-7.78c-3.17-3.39-5.78-7-5.2-12.22,4.53.85,8.76,1.66,13,2.42a161.93,161.93,0,0,0,44.92,2.18c14-1.42,27.45-4.86,39.36-12.8,6-4,11.08-8.82,14.43-15.37-10.47,11.45-23.93,14.47-38.72,14.18.48-2.52.9-4.77,1.41-7.47-1.87,1.7-3.4,3.09-4.94,4.47a9.73,9.73,0,0,1-6.64,2.54c-8.18.13-16.09-.89-23.58-4.33a36.56,36.56,0,0,1-14.76-12.38c16.48,2.62,31.54-.64,46.2-8-4.18-1.81-7.9-3.68-10.87-7.32,3.14.61,5.92,1.27,8.73,1.65,3.06.42,6.16.6,9.24.83a3.26,3.26,0,0,0,1.87-.33,91.63,91.63,0,0,0,15.93-12.74c-2.5.23-4.67.5-6.86.63a16.75,16.75,0,0,1-8.68-1.44c-3.11-1.57-4.58-4.16-4.95-7.73,19.18-.62,35.8-7.32,49.73-20.41A43.87,43.87,0,0,0,277.07,272c-15.43,6.92-30.58,11.5-47.27,5.5,2.78-4.09,5.23-8,5.68-13-5.13,6-11.95,8.17-18.94,9.85-1.14.28-2.54-.26-3.75-.64a74,74,0,0,1-27.32-15.31c-.43-.39-.83-.81-1.24-1.23-.07-.07-.07-.22-.2-.62,16.64,1.72,32.81.24,48.81-5.75l-5.67-2.9c21.16-2.47,35.82-14.24,47.58-30.51a92,92,0,0,1-22,8.25c1.83-3.49,4.48-6.29,4.44-10-4,2.92-8.05,5.67-11.9,8.62a12.9,12.9,0,0,1-10,2.54c-3.63-.46-7.27-1-11.15-1.48l2.68-5.93-.39-.31c-2,1.07-4.14,2-6,3.25a4,4,0,0,1-4.31.23c-3.67-1.67-7.14-3.63-9.81-6.74a34.67,34.67,0,0,1-2.12-3.1l16.58-1.55.06-.54c-4.88-.35-9.1-1.88-11.9-6.15,5.74-.68,11.41-1,16.92-2.12a28.42,28.42,0,0,0,15.19-7.79c-4.49-.1-8.45-.76-11.46-4.5,3.7-.82,7.18-1.48,10.59-2.38,8.7-2.32,17.08-5.42,24.68-10.42,2.68-1.77,4.18-4.27,5.76-7.16-7.67,4.44-15.28,5.23-22.75.35-4.68-3.06-6.12-7.91-6.3-13.75,8.63,5.37,16.87,4.72,24.68-1,4.63-3.4,8.4-7.58,10.44-13.75-1.19.49-1.92.8-2.65,1.08-5.13,2-10.94-.17-13.07-4.8-.37-.81-.85-1.61.46-2.21,6.32-2.89,10.53-8,14-13.79a72.77,72.77,0,0,0,7.95-20.28,4.06,4.06,0,0,0,0-.87c-4.16,2.21-8.2,4.7-13.13,1.87,1.61-1.91,3.05-3.62,4.5-5.32,2.75-3.22,4.1-7.16,5.43-11,2.43-7.14,4.71-14.33,6.9-21.55a49.52,49.52,0,0,0,1.07-6.56l-6.5.51-.19-.63c1-1.48,2-2.92,2.91-4.46,2.5-4.43,3.21-9.33,3.74-14.31.63-5.95,1.48-11.89,2.27-17.83a16.78,16.78,0,0,1,.54-2l.65-.06c.4,2.59,1,5.18,1.17,7.79.36,7.22.31,14.47.82,21.67.71,10.06,3.31,19.57,9.26,27.93a6.7,6.7,0,0,1,.42.85c-2.69,1.77-5,.49-7.73-.85a50.47,50.47,0,0,0,3.14,19,28.51,28.51,0,0,0,12,14.65c-2.08,3.18-5.62,4.42-11.09,4-1.95,11.24,7.86,26.9,21.65,26.93-1.36,5.77-10.11,8.54-19.37,6a34.62,34.62,0,0,0,9.4,8.91L308.36,161l3.13,1.67c1.26-1.51,2.15-3.32,3.6-4.08,1-.54,2.8.33,3.49,0l-4.24,4.49.76,1.18c7,2.44,14.1,3.67,21.89,2.52-1.73,5.85-4.63,10.47-10.18,13-5.4,2.5-11,2.16-16.7,1a20,20,0,0,0,14.44,5.37c-2.82,4.45-6.37,7.26-11.74,8.23A66.32,66.32,0,0,0,339.42,204a76.59,76.59,0,0,0,27.89-1.29c-1.87,9.21-10.73,19-22.4,14.48-1.55-.6-2.84-1.87-4.26-2.83-1.09,1.58-1,2.21,1.17,6.72-12,2.95-22.82,1-32.64-6.93,7.26,11.39,16.87,19.27,29.53,23.52a133.57,133.57,0,0,0,36.45,6.49c.45,0,.9,0,1.35.07a1.32,1.32,0,0,1,.35.15c-.49,3.43-6.53,7.81-13.22,8C357.81,252.48,353.05,250,348.8,246.15Z"/><path class="f" d="M345.84,263.83a11,11,0,0,0,4.69,5.89c5.76,4.1,12.39,5.78,19.26,6.54,4.78.53,9.61.63,14.55.94a17.2,17.2,0,0,1-3.79,7.52c-3.84,4.81-8.55,8.37-14.69,9.76-3,.69-5.73.53-7.84-2.28a58,58,0,0,0-4.15-4.15,1.22,1.22,0,0,0-2-.09c-1.6,1.43-2.92,3-2.59,5.8-14.28-1.38-27.07-4.94-35.13-18.31.4,2.05.64,4.15,1.23,6.14a57.34,57.34,0,0,0,8.8,17.25,5.07,5.07,0,0,0,1.95,1.57,24.93,24.93,0,0,0,11.37,2.74c-4,5-13.24,5.6-21.79,1.65a12,12,0,0,0,1.51,2.86c12,12.73,25.72,23,42.38,28.89a80.79,80.79,0,0,0,42,3.2c.48-.09,1-.16,1.68-.27A19.64,19.64,0,0,1,401.16,350c-3,6.17-8,10.26-14,13.19a2.69,2.69,0,0,1-1.75.12c-9.41-2.71-18.78-5.55-27.5-10.15-1.18-.63-2.3-1.35-3.59-2.11-.55,1.9.23,3.33,1.12,4.69,3,4.59,7.3,7.7,11.9,10.44a44.44,44.44,0,0,0,16.16,5.92c-4,2.54-17.49,2.49-25.2.11a47.34,47.34,0,0,1-21.17-13.61l-.6.26c.51,2.44,1,4.88,1.57,7.54l-2.73.71c12.71,9,25.54,16.73,41.86,17.13-.73,1.2-1.24,2.21-1.9,3.11s-1.46,1.63-2.5,2.76c19,2.71,37.39,1.24,55.71-3,.08.31.19.5.14.63-4.18,10.27-10.41,18.93-19.74,25.19-9.06,6.07-18.83,6.59-28.84,3.32-5.14-1.67-10-4.26-15-6.45-.54-.24-1.06-.56-1.83-1-.1,3.59,1.47,6.2,3.64,8.49,4.14,4.36,9.41,6.47,15.23,7.44l1.24.21c-12.19,9.59-25.85,13.06-40.79,12.53,10.15,4.42,20.66,6.25,32.29,4.21l-4.37,7.39c16.28-1.17,32.12-4.08,48-7.57-1.4,5.88-7.38,9.48-17.4,10.89,23.19,5.4,45.31,3.16,66.2-9.26,1.68,2.78,1.48,6,1,9.12a34,34,0,0,1-28.76,28.65c-7.88,1.11-15.48-.47-22.81-3.41l-2-.82a2.27,2.27,0,0,0-.49-.05,3.6,3.6,0,0,0,1.44,4,33,33,0,0,0,6.65,4.47c4,1.82,8.19,3.18,12.4,4.77a2.62,2.62,0,0,1-.65.58,44.5,44.5,0,0,1-15.21,3.92c-4.79.33-8.63-2-12.33-4.49-4-2.77-7.93-5.75-12-8.5a20.82,20.82,0,0,0-4.93-2.23A20.09,20.09,0,0,0,396.69,490c3.33,2.76,6.9,5.24,10.46,7.91a16.57,16.57,0,0,1-6.77,4.1c-7.34,2.69-15,3-22.65,2.41-4.19-.31-8.35-1-12.68-1.22l16.24,8.44c-15.7,6.27-31.34,4.49-47-.89.91.6,1.8,1.22,2.73,1.8s1.9,1.12,2.86,1.65c10.28,5.75,21.46,9.08,32.68,12.4,5.2,1.55,10.47,1.35,15.66.93,10.66-.87,21.3-2.1,31.91-3.46,4.77-.61,9.45-1.89,14.16-2.87,1,3.48-.47,6-5.2,8.44,8.51,4.1,17.34,5.21,26.33,5.51s17.92-.78,26.33-4.51l.44.38a63.48,63.48,0,0,1-3,7c-5.75,10.17-13.91,18.06-23.41,24.72-4.74,3.32-9.66,2.82-14.77,1.52a196.42,196.42,0,0,1-29.49-10.63,4.69,4.69,0,0,0-2-.5l23.4,18.49c-9.27,3.07-18,7-27.54,7.07A67.41,67.41,0,0,1,390.85,577c-9.14-1.94-18.2-4.31-27.28-6.54a30.87,30.87,0,0,1-3.44-1.31c2.29,7.27,8.53,9.19,14.62,12.2a57,57,0,0,1-5.36,2.31c-7.64,2.41-15.54,3.36-23.47,4s-15.77.83-23.65,1.34a3.77,3.77,0,0,1-4-2A98.82,98.82,0,0,0,304,568.33c-.9-.88-1.89-1.66-3.13-2.73A67.27,67.27,0,0,0,303.31,589c-2.83,0-5.5.1-8.15,0-8.87-.39-17.77-.53-26.6-1.36-10.22-1-20.37-2.59-30.56-3.9-1.24-.16-1.55-.62-1.42-1.92a34.44,34.44,0,0,0-1-13.56c-4,3.16-8,6.34-12,9.35-4.94,3.68-5,3.65-11,2.37A197.14,197.14,0,0,1,182,570.79c-.43-.17-.84-.39-1.58-.74l6.3-3.48c7.62-4.22,15-8.75,21.22-15a28.49,28.49,0,0,0,6.17-8.7c-6.08,3.08-12,6.29-18.07,9.09-8.36,3.85-17,6.91-26.24,8-4.09.47-8.24.67-12.21-.61a173.1,173.1,0,0,0-19-4.66,17.44,17.44,0,0,1-4.48-1.58l1.53-.42,1.84-.53c-2.68-1.5-5.24-2.86-7.72-4.33-8.85-5.27-16.51-11.82-22.14-20.56a45.43,45.43,0,0,1-6.79-19.41,18.65,18.65,0,0,1,0-2.13c17,12.17,35.48,18.21,56.36,15.13-4.66-1.67-8-4.45-9-9.7,2.42,1,4.63,1.92,6.9,2.69,8.24,2.78,16.78,4,25.38,4.72,5.43.46,10.87.92,16.31,1.05a32.42,32.42,0,0,0,7.6-1c11.45-2.53,22.53-6.14,32.75-12,5.43-3.15,10.57-6.7,14.45-11.74a17.56,17.56,0,0,0,2.61-5.06L242.33,495c6.17-8.53,10.22-17.46,9-28.75-.6,1.08-1,1.71-1.31,2.35-4.21,7.72-9.08,14.94-15.48,21.08-8.11,7.77-17.69,10.72-28.77,9.57s-21.38-5-31.15-10.3a6.61,6.61,0,0,1-.55-.45l3.42-5.94-.25-.31c-2.18,1-4.35,2.06-6.55,3a2.3,2.3,0,0,1-1.83.14c-4.41-3.16-8.75-6.43-13.27-9.79,5.22-4.3,11.08-7.53,12.11-15-12.76,4.47-24.52,4.6-34.74-5.34-6.24-6.07-9.58-13.24-9.33-21.55,1.52,1.27,3.21,2.65,4.85,4.08,6.24,5.47,13.66,8.53,21.6,10.44,10.39,2.51,20.95,2.88,31.57,2.21.67,0,1.33-.18,1.86-.26l-17-10.46.25-.72c13.78,1.85,27.58,3.18,41.45,2.6l-11.66-9.49.29-.38c3.28.52,6.55,1.14,9.85,1.53a80.7,80.7,0,0,0,33.55-3.18c4.61-1.41,9.07-3.33,13.57-5.06a5,5,0,0,0,1.84-1.18,61.07,61.07,0,0,0,10.77-17.46c-6.43,4.66-13.33,7.86-21.57,7.57a19.84,19.84,0,0,0,1.3-4.24,17.36,17.36,0,0,0-.63-4.1l-.57.05c-1.22,1.73-2.38,3.51-3.69,5.17a17.46,17.46,0,0,1-8.54,6.08,73.38,73.38,0,0,1-23.63,3.83c-2.35-.05-4.69-.5-7.44-.8,3.5-4.54,6.08-8.95,6.31-14.36-3,2.42-5.79,4.87-8.79,7.07-7.61,5.59-16,6.75-24.91,3.79-10.86-3.62-18.87-10.41-23.07-21.27-.43-1.12-.67-2.3-1.1-3.84,5.65,2.94,11.21,4.41,17.27,3.16a34.7,34.7,0,0,1-10.77-7.39c-3-3.21-5.48-6.66-4.92-11.58,4.29.8,8.3,1.57,12.32,2.29a153.7,153.7,0,0,0,42.6,2.07c13.29-1.35,26-4.61,37.33-12.14,5.66-3.77,10.5-8.36,13.69-14.58-9.93,10.87-22.7,13.73-36.73,13.45.45-2.39.86-4.53,1.34-7.08l-4.69,4.24a9.18,9.18,0,0,1-6.29,2.4c-7.76.13-15.27-.84-22.37-4.1a34.77,34.77,0,0,1-14-11.74c15.63,2.48,29.92-.61,43.82-7.58-4-1.72-7.49-3.49-10.31-6.94,3,.57,5.61,1.2,8.28,1.57,2.91.39,5.84.56,8.77.77a3,3,0,0,0,1.77-.3,87.45,87.45,0,0,0,15.1-12.09c-2.37.22-4.43.48-6.5.6a15.89,15.89,0,0,1-8.23-1.37c-2.95-1.49-4.35-3.94-4.7-7.32,18.19-.6,34-6.95,47.16-19.37a41,41,0,0,0,7.81-10c-14.63,6.56-29,10.9-44.83,5.22,2.64-3.89,5-7.58,5.39-12.37-4.87,5.73-11.34,7.75-18,9.35a7.34,7.34,0,0,1-3.55-.61,70.15,70.15,0,0,1-25.91-14.52c-.41-.37-.79-.77-1.18-1.16-.07-.08-.07-.21-.19-.59,15.78,1.63,31.11.23,46.29-5.46l-5.38-2.75c20.08-2.34,34-13.51,45.13-28.94a86.68,86.68,0,0,1-20.82,7.83c1.73-3.31,4.24-6,4.21-9.5-3.84,2.76-7.64,5.37-11.29,8.18a12.28,12.28,0,0,1-9.46,2.4c-3.45-.44-6.9-.91-10.58-1.4.93-2,1.73-3.84,2.54-5.62l-.37-.3c-1.92,1-3.92,1.89-5.73,3.08a3.8,3.8,0,0,1-4.08.22,25.85,25.85,0,0,1-9.31-6.39,32.54,32.54,0,0,1-2-2.94l15.72-1.47.06-.52c-4.63-.33-8.63-1.78-11.29-5.82,5.45-.66,10.82-1,16.06-2a26.93,26.93,0,0,0,14.4-7.39c-4.26-.09-8-.71-10.87-4.26,3.51-.79,6.81-1.41,10-2.27,8.26-2.19,16.2-5.13,23.41-9.88,2.54-1.67,4-4.05,5.47-6.79-7.27,4.21-14.5,5-21.59.34-4.43-2.9-5.8-7.5-6-13,8.19,5.09,16,4.47,23.41-1a25.86,25.86,0,0,0,9.91-13c-1.14.46-1.82.75-2.52,1-4.86,1.86-10.38-.16-12.4-4.55-.35-.77-.8-1.53.44-2.09,6-2.75,10-7.59,13.26-13.08A69.63,69.63,0,0,0,283.79,127a3.71,3.71,0,0,0,0-.83c-3.94,2.1-7.78,4.46-12.45,1.77,1.52-1.8,2.88-3.43,4.26-5,2.61-3.06,3.89-6.79,5.15-10.48,2.31-6.77,4.47-13.59,6.54-20.44a46.07,46.07,0,0,0,1-6.22l-6.17.48-.17-.59c.92-1.41,1.92-2.77,2.75-4.24,2.38-4.2,3-8.84,3.55-13.56.6-5.65,1.41-11.28,2.15-16.91a14.76,14.76,0,0,1,.52-1.92l.61-.06a71.62,71.62,0,0,1,1.11,7.39c.35,6.85.3,13.72.78,20.56.68,9.53,3.14,18.56,8.79,26.48a7,7,0,0,1,.39.81c-2.54,1.68-4.78.46-7.33-.81a48,48,0,0,0,3,18.06,27,27,0,0,0,11.37,13.89c-2,3-5.32,4.19-10.52,3.79-1.84,10.66,7.46,25.51,20.54,25.54-1.29,5.47-9.59,8.1-18.37,5.64a32.68,32.68,0,0,0,8.91,8.45c-.88,1.39-1.73,2.7-2.72,4.26l3,1.58c1.19-1.43,2-3.15,3.41-3.87,1-.52,2.66.31,3.31,0l-4,4.26.72,1.12a42.52,42.52,0,0,0,20.76,2.39c-1.64,5.55-4.39,9.94-9.65,12.37s-10.45,2.05-15.84,1A19,19,0,0,0,322.84,207c-2.67,4.22-6,6.89-11.13,7.8a62.9,62.9,0,0,0,25.24,9,72.48,72.48,0,0,0,26.45-1.22c-1.77,8.74-10.17,18-21.25,13.74a22.64,22.64,0,0,1-4-2.69c-1,1.5-1,2.09,1.1,6.37-11.37,2.8-21.64.93-31-6.57,6.88,10.81,16,18.28,28,22.31A127.33,127.33,0,0,0,370.85,262l1.28.06a1,1,0,0,1,.32.14c-.45,3.25-6.19,7.41-12.53,7.56C354.39,269.84,349.88,267.45,345.84,263.83Z"/><polygon class="g" points="291.48 33.42 277.64 653.27 308.97 653.27 291.48 33.42"/><path class="g" d="M417.27-11.45"/></svg>