<svg xmlns="http://www.w3.org/2000/svg" viewBox="0 0 582.95 742.5"><defs><style>.a{fill:none;}.b{fill:#d9f297;}.c{fill:#97e9ff;}.d{fill:#ffd72e;}.e{fill:#f3c615;}.f{fill:#563b00;}</style></defs><rect class="a" width="582.95" height="742.5"/><path class="b" d="M106.23,613.63c-3.55,6,22.64,21.56,22.64,21.56S30.22,637.65,29.46,668C27.5,745.69,494.83,729,502,683.91c3.68-23.31-43-28.22-43-28.22s94.18,3.33,94.5-20.87C554.31,574.31,132.17,569.9,106.23,613.63Z"/><path class="c" d="M506,254.46c-99.22-24.56-1.41-64.58-48.43-137.53C429.2,78.72,387,60,343.65,60.51,225.75,61.81,36.21,165.68,51.83,306c5,44.67-21.56,79.72-14.51,122.63,13.5,79,125.57,99.65,183.79,104.05,97.32,69.58,329.79,46,263.05-135C546.69,379.15,576.59,293.1,506,254.46Zm-3.47,44.74c-.4-.32-1.64-1.34-1.64-1.38C501.2,297.74,501.87,298.41,502.57,299.2ZM72,417.68c.4,1.56.16,2.3,0,0Zm101.74,68.24a10.44,10.44,0,0,0-1.62-.86C171.72,484.62,173.12,485,173.78,485.92Z"/><path class="c" d="M511.72,402.14c1-.71-.51,1-.94,1A5.55,5.55,0,0,1,511.72,402.14Z"/><path class="c" d="M510.59,403.38c.74-.32,0,.34-.72.93C510.12,404,510.37,403.67,510.59,403.38Z"/><path class="c" d="M509.63,410.28c0-.3,0-.7,0-1.16C509.73,409.34,509.75,410.55,509.63,410.28Z"/><path class="c" d="M178.55,45h0Z"/><path class="c" d="M97.75,424.23c.4,1.56.16,2.3,0,0Z"/><path class="d" d="M212,416.88C127.16,392.43,56.24,426.33,55,307.8c54.55,14.29,35-51.94,73.1-55.41-67.72-59.07,22.16-123.11,66.55-164.6,20.24,11.6,34.94,36.76,56.62,45.7C269.41,108.68,323.71,72,362.5,84.91,412.19,166,522.3,150.33,528,269.39c-41.68,15,3.12,40.9-6.66,71.48-3.06,12.49-.1,32.65-14.41,37.75-37.11-4.39-78.22,38.06-104.09,61.37C378.73,445.54,295,399,212,416.88Z"/><path class="e" d="M220.27,412.46c-75.91-21.38-139.41,8.28-140.55-95.41,48.85,12.5,31.35-45.44,65.45-48.48-60.62-51.67,19.84-107.69,59.59-144,18.12,10.15,31.28,32.15,50.69,40,16.27-21.7,64.89-53.8,99.62-42.5C399.55,193,498.14,179.3,503.23,283.45c-37.31,13.08,2.8,35.78-6,62.52-2.75,10.93-.1,28.57-12.91,33-33.23-3.84-70,33.3-93.19,53.69C369.6,437.54,294.64,396.83,220.27,412.46Z"/><polygon class="f" points="408.03 318.98 471.53 337.81 413.23 315.3 458.19 283.53 408.85 313.61 408.01 313.29 407.64 314.35 356.5 345.52 387.19 239.34 451.44 227.24 388.19 235.91 400.95 191.78 385.35 236.29 385.07 236.33 385.22 236.66 344.51 352.83 296.8 381.91 293.41 286.02 333.61 183.42 370.06 183.2 335.73 178 353.76 132 292.76 267.78 288.89 158.32 284.05 331.48 207.67 232.39 204.49 138.76 203.56 227.06 168.7 181.84 262.3 320.6 171.36 333.45 117.56 299.2 166.62 334.12 94.59 344.29 269.4 331.12 283.48 351.99 275.06 653.27 306.38 653.27 297.33 397.19 408.03 318.98"/></svg>