<svg xmlns="http://www.w3.org/2000/svg" viewBox="0 0 582.95 742.5"><defs><style>.a{fill:none;}.b{fill:#d9f297;}.c{fill:#97e9ff;}.d{fill:#ff9fcb;}.e{fill:#ff7cb3;}.f{fill:#563b00;}</style></defs><rect class="a" width="582.95" height="742.5"/><path class="b" d="M106.23,613.63c-3.55,6,22.64,21.56,22.64,21.56S30.22,637.65,29.46,668C27.5,745.69,494.83,729,502,683.91c3.68-23.31-43-28.22-43-28.22s94.18,3.33,94.5-20.87C554.31,574.31,132.17,569.9,106.23,613.63Z"/><path class="c" d="M506,254.46c-99.22-24.56-1.41-64.58-48.43-137.53C429.2,78.72,387,60,343.65,60.51,225.75,61.81,36.21,165.68,51.83,306c5,44.67-21.56,79.72-14.51,122.63,13.5,79,125.57,99.65,183.79,104.05,97.32,69.58,329.79,46,263.05-135C546.69,379.15,576.59,293.1,506,254.46Zm-3.47,44.74c-.4-.32-1.64-1.34-1.64-1.38C501.2,297.74,501.87,298.41,502.57,299.2ZM72,417.68c.4,1.56.16,2.3,0,0Zm101.74,68.24a10.44,10.44,0,0,0-1.62-.86C171.72,484.62,173.12,485,173.78,485.92Z"/><path class="c" d="M511.72,402.14c1-.71-.51,1-.94,1A5.55,5.55,0,0,1,511.72,402.14Z"/><path class="c" d="M510.59,403.38c.74-.32,0,.34-.72.93C510.12,404,510.37,403.67,510.59,403.38Z"/><path class="c" d="M509.63,410.28c0-.3,0-.7,0-1.16C509.73,409.34,509.75,410.55,509.63,410.28Z"/><path class="c" d="M178.55,45h0Z"/><path class="c" d="M97.75,424.23c.4,1.56.16,2.3,0,0Z"/><path class="d" d="M540.22,394.56c-3-28.1-17.82-52.74-29.11-77.29-8.91-31.31-13.05-71.25-55-52-27.34-13.21,2.42-73.51-76.7-98.75-17.81-7.23-12.5-31.28-27.15-40.46-41.15-2.4-91,6.19-128.49,25.49-80,87.25-20.33,63.11-135,118.31-22.92,14.33-23.84,42.84-33,65.85-15.79,25.94-32,56.1,3,74.89,12.65,10.29-23.53,41.56-4.57,76.5,46.37,139.8,190.19,38,196.4,30.74C274.44,483.55,322,492.1,358,481.52,369.74,494.45,579.15,675.43,540.22,394.56ZM162.57,287.18c2.68.94-.13.33-.94-.33C162,287,162.25,287.06,162.57,287.18ZM95.63,477c-.08-.26-.34-.91-.3-.88C97.16,478.29,96.18,478.85,95.63,477Z"/><path class="d" d="M96.12,478c-.23-.47-.45-1.29-.76-1.81C96.27,477.11,96.77,478.7,96.12,478Z"/><path class="e" d="M523.09,400.29c-2.81-25.77-16.59-48.35-27.12-70.85-8.29-28.71-12.14-65.33-51.19-47.69-25.47-12.11,2.25-67.4-71.44-90.53-16.58-6.63-11.64-28.68-25.28-37.1-38.32-2.2-84.79,5.68-119.66,23.37-74.47,80-18.93,57.86-125.72,108.47-21.34,13.14-22.2,39.28-30.76,60.37C57.21,370.11,42.15,397.76,74.7,415c11.78,9.43-21.91,38.1-4.26,70.13,25.88,76.81,132.65,86.23,182.91,28.19,22.22-31.44,66.53-23.59,100.07-33.3C364.6,492.17,559.3,657.49,523.09,400.29Zm-351.7-98.45c2.5.87-.12.31-.88-.3ZM109,475.88c-.06-.24-.31-.83-.28-.8C110.47,477.06,109.55,477.57,109,475.88Z"/><path class="e" d="M109.51,476.8c-.22-.42-.43-1.17-.72-1.66C109.64,476,110.11,477.43,109.51,476.8Z"/><polygon class="f" points="376.81 382.15 385.46 274.72 381.14 372.49 376.81 382.15"/><polygon class="f" points="331.71 466.71 416.36 318.07 331.71 443.82 331.71 466.71"/><polygon class="f" points="365.08 480.61 471.96 488.03 373.71 477.47 365.08 480.61"/><polygon class="f" points="336.04 274.72 271.78 195.79 336.04 260.67 336.04 274.72"/><polygon class="f" points="296.81 512.12 132.77 375.89 276.12 529.73 267.89 653.27 340.38 653.27 336.91 514.9 483.81 365.49 337.58 499.15 343.45 171.08 296.81 512.12"/><polygon class="f" points="227.3 466.71 129.06 512.03 234.71 475.08 227.3 466.71"/><polygon class="f" points="231.01 301.54 222.67 210.93 238.42 310.4 231.01 301.54"/><polygon class="f" points="318.12 425.05 197.64 257.65 318.12 401.84 318.12 425.05"/><polygon class="f" points="181.89 420.38 163.7 287.66 193.94 434.74 181.89 420.38"/><polygon class="f" points="249.11 478.18 226.2 382.15 267.79 488.03 249.11 478.18"/></svg>