<svg xmlns="http://www.w3.org/2000/svg" viewBox="0 0 582.95 742.5"><defs><style>.a{fill:none;}.b{fill:#d9f297;}.c{fill:#97e9ff;}.d{fill:#d6d8d7;}.e{fill:#bdbfbe;}.f{fill:#563b00;}</style></defs><rect class="a" width="582.95" height="742.5"/><path class="b" d="M106.23,613.63c-3.55,6,22.64,21.56,22.64,21.56S30.22,637.65,29.46,668C27.5,745.69,494.83,729,502,683.91c3.68-23.31-43-28.22-43-28.22s94.18,3.33,94.5-20.87C554.31,574.31,132.17,569.9,106.23,613.63Z"/><path class="c" d="M506,254.46c-99.22-24.56-1.41-64.58-48.43-137.53C429.2,78.72,387,60,343.65,60.51,225.75,61.81,36.21,165.68,51.83,306c5,44.67-21.56,79.72-14.51,122.63,13.5,79,125.57,99.65,183.79,104.05,97.32,69.58,329.79,46,263.05-135C546.69,379.15,576.59,293.1,506,254.46Zm-3.47,44.74c-.4-.32-1.64-1.34-1.64-1.38C501.2,297.74,501.87,298.41,502.57,299.2ZM72,417.68c.4,1.56.16,2.3,0,0Zm101.74,68.24a10.44,10.44,0,0,0-1.62-.86C171.72,484.62,173.12,485,173.78,485.92Z"/><path class="c" d="M511.72,402.14c1-.71-.51,1-.94,1A5.55,5.55,0,0,1,511.72,402.14Z"/><path class="c" d="M510.59,403.38c.74-.32,0,.34-.72.93C510.12,404,510.37,403.67,510.59,403.38Z"/><path class="c" d="M509.63,410.28c0-.3,0-.7,0-1.16C509.73,409.34,509.75,410.55,509.63,410.28Z"/><path class="c" d="M178.55,45h0Z"/><path class="c" d="M97.75,424.23c.4,1.56.16,2.3,0,0Z"/><path class="d" d="M524,401.82l0,0Z"/><path class="d" d="M556,517.62c-45.43,8.93-88.44-14.53-132.71-27.15-67.92-4.08-139.52,29.19-206.14,1.67C166.88,471.54,68,477.61,41.23,414.46,85.85,338.56,80.31,285.7,143.07,224c13.64-32.65,31.42-61.13,59-63.71,23.12-10.76,28.4-59.46,55.61-61.47,29.66-5.83,50.7,36.93,77.54,47.19,45.48,6.55,24.81,26,44.53,56.89,35.3,8.84,111.78-11.17,78.89,85.41C420.78,376.5,531.46,327.38,537.11,394,541.78,426.19,580.44,499.1,556,517.62Z"/><path class="e" d="M504.49,404.41l0,0Z"/><path class="e" d="M533.48,510c-41.41,8.14-80.61-13.25-121-24.75-61.92-3.72-127.18,26.6-187.9,1.52-45.84-18.78-135.95-13.25-160.37-70.81,40.66-69.18,35.62-117.36,92.83-173.64,12.43-29.77,28.63-55.73,53.74-58.08,21.08-9.8,25.89-54.19,50.69-56,27-5.31,46.21,33.67,70.67,43,41.46,6,22.62,23.74,40.59,51.85,32.18,8.06,101.9-10.18,71.92,77.85-34.48,80.44,66.41,35.66,71.55,96.36C520.51,426.6,555.75,493.06,533.48,510Z"/><path class="f" d="M264.79,653.27V549.07l-53-72L93.63,421.79,198.5,455,129.79,335.54l135,191.3V442.9L155.1,316.57l54.25,44.66L191.26,220.29l28.93,145.92L270,418.12l4.46-112.39-35-97.36L279,279.8l9.94-124.21v109l72.33-56.23L287.7,291.66l1.2,103.62,44.47-11.52L442,281.16l-75.72,94.07,54-14-130.18,53V534.6L480.27,374.73l-79.13,82L434.67,468l66.26-12.3-51.24,17.38,63.41,21.43L392.57,466.41l-101.26,92,1.21,94.9Z"/></svg>