<svg xmlns="http://www.w3.org/2000/svg" viewBox="0 0 582.95 742.5"><defs><style>.a{fill:none;}.b{fill:#d9f297;}.c{fill:#97e9ff;}.d{fill:#ff9c39;}.e{fill:#fa771f;}.f{fill:#563b00;}</style></defs><rect class="a" width="582.95" height="742.5"/><path class="b" d="M106.23,613.63c-3.55,6,22.64,21.56,22.64,21.56S30.22,637.65,29.46,668C27.5,745.69,494.83,729,502,683.91c3.68-23.31-43-28.22-43-28.22s94.18,3.33,94.5-20.87C554.31,574.31,132.17,569.9,106.23,613.63Z"/><path class="c" d="M506,254.46c-99.22-24.56-1.41-64.58-48.43-137.53C429.2,78.72,387,60,343.65,60.51,225.75,61.81,36.21,165.68,51.83,306c5,44.67-21.56,79.72-14.51,122.63,13.5,79,125.57,99.65,183.79,104.05,97.32,69.58,329.79,46,263.05-135C546.69,379.15,576.59,293.1,506,254.46Zm-3.47,44.74c-.4-.32-1.64-1.34-1.64-1.38C501.2,297.74,501.87,298.41,502.57,299.2ZM72,417.68c.4,1.56.16,2.3,0,0Zm101.74,68.24a10.44,10.44,0,0,0-1.62-.86C171.72,484.62,173.12,485,173.78,485.92Z"/><path class="c" d="M511.72,402.14c1-.71-.51,1-.94,1A5.55,5.55,0,0,1,511.72,402.14Z"/><path class="c" d="M510.59,403.38c.74-.32,0,.34-.72.93C510.12,404,510.37,403.67,510.59,403.38Z"/><path class="c" d="M509.63,410.28c0-.3,0-.7,0-1.16C509.73,409.34,509.75,410.55,509.63,410.28Z"/><path class="c" d="M178.55,45h0Z"/><path class="c" d="M97.75,424.23c.4,1.56.16,2.3,0,0Z"/><path class="d" d="M531.66,458.76c-80.35-32,34-25.33-3.89-132.54-5.72-32.73,38.54-45.48-7-65.17-9.15-34.59-50.54-39.77-81.54-35-12.36,2-30.9,25.3-39.46,16,29.57-72.61,17.74-45.86,12.2-121.76,0-16.52-16-21.15-27.81-27.7C366.82,77,352.3,51.85,325.55,54,254.5,78.68,301.73,103.3,199.43,110c-44,32.53-13,49.52-79.85,50.82-59,19.14-61.52,74.92-15.85,111.61-61.52,29.4-41.52,110.38,8.46,140.88,17.87,8.49-40.23,14.81-8.23,47.91-27.09-15.78-69.47-4.75-69.3,33.75,19.71,121.14,183.71,117.36,271.82,75.78C380.91,565.84,567.34,577,531.66,458.76Z"/><path class="e" d="M515.93,467.69c-75.16-29.93,31.8-23.69-3.63-124-5.36-30.62,36-42.54-6.59-61-8.55-32.36-47.27-37.2-76.27-32.69-11.56,1.87-28.9,23.66-36.91,14.95,27.67-67.91,16.59-42.9,11.42-113.89,0-15.46-14.93-19.79-26-25.91-16.19-14.67-29.77-38.15-54.8-36.15-66.46,23.1-22.28,46.13-118,52.44C164,171.92,193,187.82,130.46,189c-55.18,17.9-57.54,70.09-14.82,104.4-57.55,27.51-38.84,103.25,7.91,131.78,16.72,8-37.63,13.86-7.7,44.82-25.34-14.76-65-4.45-64.82,31.57C69.47,614.91,222.87,611.38,305.3,572.48,374.92,567.85,549.31,578.25,515.93,467.69Z"/><path class="f" d="M260.43,656.05s4.1-27.33,0-49.19-90.19-373.07-90.19-373.07S277.29,598.15,284.58,597s57.85-476.67,57.85-476.67-26,461.38-26,476.67,4.1,59,4.1,59Z"/><polygon class="f" points="372.04 477.03 388.32 437.86 376.59 475.33 372.04 477.03"/><polygon class="f" points="313.27 507.1 469.97 439.99 313.27 495.86 313.27 507.1"/><polygon class="f" points="385.25 529.27 447.65 474.76 392.08 529.27 385.25 529.27"/><polygon class="f" points="330.13 546.88 363.53 439.99 332.98 546.88 330.13 546.88"/><polygon class="f" points="307.96 562.67 503.83 495.86 304.62 546.27 307.96 562.67"/><polygon class="f" points="382.36 380.77 426.09 359.21 380.32 384.59 382.36 380.77"/><polygon class="f" points="372.04 409.4 412.12 289.36 374.2 409.4 372.04 409.4"/><polygon class="f" points="320.41 422.37 503.83 396.43 320.41 409.4 320.41 422.37"/><polygon class="f" points="352.9 375.91 379.32 289.36 358.14 373.63 352.9 375.91"/><polygon class="f" points="320.41 393.22 481.36 274.79 320.41 413.26 320.41 393.22"/><polygon class="f" points="301.28 512.56 284.58 380.77 304.62 502.54 301.28 512.56"/><polyline class="f" points="259.59 425.09 241.53 362.25 259.1 430.62 259.59 425.09"/><polygon class="f" points="301.28 250.8 307.96 195.38 302.19 256.26 301.28 250.8"/><path class="f" d="M320.41,351.31c-3-3.14-32.3-185.85-32.3-185.85l28.05,193.75Z"/><polygon class="f" points="253.6 287.69 209.26 156.96 255.27 289.36 253.6 287.69"/><path class="f" d="M320.41,368.93C319.5,366.19,205,232.27,205,232.27l115.4,128.15-1.52,8.51Z"/><polygon class="f" points="209.26 375.91 100.55 329.75 209.26 380.77 209.26 375.91"/><polygon class="f" points="173.43 530.33 123.33 448.56 169.33 528.96 173.43 530.33"/><path class="f" d="M256.33,553.56c-8.58-1.12-166.71-51-166.71-51l167.63,60.13Z"/><path class="f" d="M247.53,516.51C248.74,508,267,343,267,343l-16.4,182.63Z"/></svg>