<svg xmlns="http://www.w3.org/2000/svg" viewBox="0 0 582.95 742.5"><defs><style>.a{fill:none;}.b{fill:#d9f297;}.c{fill:#97e9ff;}.d{fill:#ff335a;}.e{fill:#e72035;}.f{fill:#563b00;}</style></defs><rect class="a" width="582.95" height="742.5"/><path class="b" d="M106.23,613.63c-3.55,6,22.64,21.56,22.64,21.56S30.22,637.65,29.46,668C27.5,745.69,494.83,729,502,683.91c3.68-23.31-43-28.22-43-28.22s94.18,3.33,94.5-20.87C554.31,574.31,132.17,569.9,106.23,613.63Z"/><path class="c" d="M506,254.46c-99.22-24.56-1.41-64.58-48.43-137.53C429.2,78.72,387,60,343.65,60.51,225.75,61.81,36.21,165.68,51.83,306c5,44.67-21.56,79.72-14.51,122.63,13.5,79,125.57,99.65,183.79,104.05,97.32,69.58,329.79,46,263.05-135C546.69,379.15,576.59,293.1,506,254.46Zm-3.47,44.74c-.4-.32-1.64-1.34-1.64-1.38C501.2,297.74,501.87,298.41,502.57,299.2ZM72,417.68c.4,1.56.16,2.3,0,0Zm101.74,68.24a10.44,10.44,0,0,0-1.62-.86C171.72,484.62,173.12,485,173.78,485.92Z"/><path class="c" d="M511.72,402.14c1-.71-.51,1-.94,1A5.55,5.55,0,0,1,511.72,402.14Z"/><path class="c" d="M510.59,403.38c.74-.32,0,.34-.72.93C510.12,404,510.37,403.67,510.59,403.38Z"/><path class="c" d="M509.63,410.28c0-.3,0-.7,0-1.16C509.73,409.34,509.75,410.55,509.63,410.28Z"/><path class="c" d="M178.55,45h0Z"/><path class="c" d="M97.75,424.23c.4,1.56.16,2.3,0,0Z"/><path class="d" d="M555.13,524.77c-35.24,44.43-124.11,26.06-176,18.81-44.72-10-78-57-126.92-44.43-53.65-8.28-262.31,111.34-220.46-9.3-7.43-33.24,24-51.91,33.14-80.47,6.15-27.62,37.78-41.87,43.44-64.94,11.16-49.3,117.35-58.29,157.9-90.12,50-6.35,91.65,32.31,141.61,33.33,37.49.12,62.57,21.5,80.42,52.18,31.7,17.09,60.38,42.63,51.23,82.3C540.35,456.15,562.88,489.76,555.13,524.77Z"/><path class="e" d="M523.48,520.15c-31,39.09-109.22,22.92-154.91,16.55-39.35-8.84-68.65-50.15-111.68-39.1-47.21-7.28-230.81,98-194-8.18C56.36,460.17,84,443.75,92.06,418.61c5.42-24.3,33.24-36.84,38.23-57.14,9.82-43.38,103.26-51.29,138.94-79.3,44-5.59,80.64,28.43,124.6,29.33,33,.11,55.06,18.92,70.77,45.91,27.89,15,53.13,37.51,45.07,72.42C510.47,459.77,530.29,489.34,523.48,520.15Z"/><polygon class="f" points="170.88 481.18 103.28 508.49 167.45 480.18 170.88 481.18"/><polygon class="f" points="192.64 486.89 140.04 409.15 201.72 489.84 192.64 486.89"/><polygon class="f" points="370.51 486.89 381.5 387.74 378.12 479.7 370.51 486.89"/><polygon class="f" points="378.12 497.87 421.21 519.84 383.56 497.13 378.12 497.87"/><polygon class="f" points="365.44 494.91 456.7 494.91 357.83 500.83 365.44 494.91"/><polyline class="f" points="381.5 470.83 471.06 379.99 396.69 469.01 381.5 470.83"/><polygon class="f" points="323.19 449.78 309.88 325.7 328.89 441.68 323.19 449.78"/><polygon class="f" points="234.04 442.52 257.7 347.46 236.16 446.33 234.04 442.52"/><path class="f" d="M262.77,436.61c-1.35-3-28.73-117.88-28.73-117.88l33.8,109.43Z"/><polygon class="f" points="246.3 460.69 297 369.86 253.06 467.98 246.3 460.69"/><path class="f" d="M223.9,435.34c-1.69-5.91-13.94-75.2-13.94-75.2L234,446.33Z"/><polyline class="f" points="242.71 499.98 214.82 436.61 233.2 497.13 242.71 499.98"/><path class="f" d="M259.82,610.25s-1.49-36.78-4.15-48.71c-3.13-14-19.94-53.95-19.94-53.95L103.28,458.16,242.71,500l26,49.44v-41.2c0-1.9-114.07-161.6-114.07-161.6L294,505.69l83-180L309.88,503.79,308,539.91l73.51-69.08,121.68-14.58L387.73,479s-65.25,53.52-76,78.68c-5.14,12.11-1.9,52.6-1.9,52.6Z"/><polygon class="f" points="320.97 460.06 396.39 434.07 320.26 462.99 320.97 460.06"/></svg>