<svg xmlns="http://www.w3.org/2000/svg" viewBox="0 0 582.95 742.5"><defs><style>.a{fill:none;}.b{fill:#d9f297;}.c{fill:#97e9ff;}.d{fill:#bcf244;}.e{fill:#7fc735;}.f{fill:#563b00;}</style></defs><rect class="a" width="582.95" height="742.5"/><path class="b" d="M106.23,613.63c-3.55,6,22.64,21.56,22.64,21.56S30.22,637.65,29.46,668C27.5,745.69,494.83,729,502,683.91c3.68-23.31-43-28.22-43-28.22s94.18,3.33,94.5-20.87C554.31,574.31,132.17,569.9,106.23,613.63Z"/><path class="c" d="M506,254.46c-99.22-24.56-1.41-64.58-48.43-137.53C429.2,78.72,387,60,343.65,60.51,225.75,61.81,36.21,165.68,51.83,306c5,44.67-21.56,79.72-14.51,122.63,13.5,79,125.57,99.65,183.79,104.05,97.32,69.58,329.79,46,263.05-135C546.69,379.15,576.59,293.1,506,254.46Zm-3.47,44.74c-.4-.32-1.64-1.34-1.64-1.38C501.2,297.74,501.87,298.41,502.57,299.2ZM72,417.68c.4,1.56.16,2.3,0,0Zm101.74,68.24a10.44,10.44,0,0,0-1.62-.86C171.72,484.62,173.12,485,173.78,485.92Z"/><path class="c" d="M511.72,402.14c1-.71-.51,1-.94,1A5.55,5.55,0,0,1,511.72,402.14Z"/><path class="c" d="M510.59,403.38c.74-.32,0,.34-.72.93C510.12,404,510.37,403.67,510.59,403.38Z"/><path class="c" d="M509.63,410.28c0-.3,0-.7,0-1.16C509.73,409.34,509.75,410.55,509.63,410.28Z"/><path class="c" d="M178.55,45h0Z"/><path class="c" d="M97.75,424.23c.4,1.56.16,2.3,0,0Z"/><path class="d" d="M484.93,341.43c-19.27,51.76,7.88,117.48-36.21,157.9.18,20.72-.6,44.11-20.76,56.36-54.12,23.73-160.93,30.35-213.85,6-46.62,6.7-83.57-37.06-69.43-82-17.77-9.95-33.15-23.66-37.7-44.84-9.31-22.43,15.51-38.92,13-57.58-14.49-22.51-27.24-47.42-19.77-75,5.24-27.6,24.21-49.6,31.14-76.41-.64-33.15,13.8-57,40.39-75.47-18.57-72.45,35.72-90.5,95-107,147.46-44.13,83.37,17.92,163.54,58,55.74,19.85,28.62,83.67,33,127.89C463.6,268.07,483.74,303.13,484.93,341.43Z"/><path class="e" d="M471,358.37c-17.89,48,7.31,109-33.62,146.55.17,19.23-.56,40.93-19.26,52.3-50.23,22-149.37,28.17-198.48,5.55a58.65,58.65,0,0,1-64.43-76.08c-16.5-9.23-30.78-22-35-41.62-8.63-20.82,14.4-36.12,12.08-53.44-13.45-20.89-25.28-44-18.35-69.57,4.86-25.62,22.47-46,28.9-70.91-.6-30.77,12.81-52.9,37.48-70.05-17.23-67.24,33.16-84,88.18-99.31,136.87-40.95,77.38,16.64,151.78,53.79,51.74,18.42,26.57,77.65,30.6,118.69C451.22,290.28,469.91,322.82,471,358.37Z"/><polygon class="f" points="191 293.42 223.87 171.89 193.12 312.84 191 293.42"/><path class="f" d="M227.11,514.31c-1,.63-34,31.38-34,31.38l38.6-31.38Z"/><polygon class="f" points="246.2 507.09 183.03 465.75 240.31 508.34 246.2 507.09"/><polygon class="f" points="266.21 513.07 169.08 522.78 259.24 498.62 266.21 513.07"/><polygon class="f" points="371.05 360.16 398.45 282.46 376.5 358.01 371.05 360.16"/><polygon class="f" points="333.45 402.5 442.53 305.87 333.45 381.08 333.45 402.5"/><polygon class="f" points="315.52 455.29 439.04 404.99 318.01 445.33 315.52 455.29"/><polygon class="f" points="336.93 528.01 453.48 349.2 353.87 522.78 336.93 528.01"/><polygon class="f" points="297.09 569.35 445.02 476.21 299.58 532.49 297.09 569.35"/><polygon class="f" points="381.01 238.13 407.66 175.87 381.01 246.47 381.01 238.75 381.01 238.13"/><path class="f" d="M376.78,279.47c0-1,5-114.55,5-114.55l3.49,103.59Z"/><path class="f" d="M348.89,344.22c0-.5,99.11-159.88,99.11-159.88L353.12,302.63Z"/><polygon class="f" points="335.94 176.87 370.31 106.64 339.43 192.31 335.94 176.87"/><polygon class="f" points="294.6 136.53 191 134.03 303.5 143.5 294.6 136.53"/><polygon class="f" points="335.94 171.89 246.2 101.16 333.95 159.44 335.94 171.89"/><path class="f" d="M306.55,243.61c-.16-3.48,3-78.69,3-78.69l3.27,86.14Z"/><polygon class="f" points="343.41 332.27 259.24 159.44 348.89 312.84 343.41 332.27"/><polygon class="f" points="306.55 404.99 241.8 289.93 306.55 412.96 306.55 404.99"/><polygon class="f" points="303.5 371.62 315.52 325.3 303.5 385.06 303.5 371.62"/><path class="f" d="M308.54,457.78c0-4-17.06-158.88-17.06-158.88l24,135.47Z"/><path class="f" d="M226.36,418.43c2.49-5,8-153.4,8-153.4L223.87,413.45Z"/><path class="f" d="M204,393c-1.5-1-84.67-80.19-84.67-80.19L204,379.09Z"/><path class="f" d="M226.36,434.37c-2,0-92.14-7.47-92.14-7.47l83.68-6Z"/><polygon class="f" points="265.71 385.06 264.72 382.57 223.87 279.47 268.52 370.12 265.71 385.06"/><polygon class="f" points="268.52 307.86 291.48 184.34 272.68 317.33 268.52 307.86"/><polygon class="f" points="243.79 450.81 268.52 345.22 247.28 214.72 283.14 344.72 258.74 469.24 243.79 450.81"/><polygon class="f" points="265.02 657.51 272.93 538.92 199.34 401.47 172.82 206.26 219.45 390.75 288.37 509.35 342.77 310.32 325.35 93.15 364.22 313 304.74 546.13 310.6 657.51 265.02 657.51"/></svg>