<svg xmlns="http://www.w3.org/2000/svg" viewBox="0 0 140.44 146.48"><defs><style>.a{fill:#f3c615;}</style></defs><path class="a" d="M16.3,85.79c2.23-.92,4.41-2,6.69-2.73a101.75,101.75,0,0,1,10.89-3.29c2-.43,4.69-.72,6.16.27,7,4.74,14.34,1.13,21.32.67,4.37-.28,8.53-3.91,12.79-6,.58-.29,1.36-.8,1.8-.62,3.81,1.56,8,2.64,11.23,5,7.37,5.48,17.28,3.91,20.69-4.37,1.73-4.19,2.24-9,2.88-13.51.45-3.29.1-6.51-4.79-6a2.86,2.86,0,0,1-2.3-1.52c-1.14-5.1-5-7.64-9-10.17-.61-.39-.9-1.27-2-3,10.23-2.51,16.78-8.65,19-19l1.82.29c1.11,2,2.57,3.85,3.25,6,1.56,4.91,3.8,8.82,9.52,9.61a11,11,0,0,1,4,1.93c3.08,1.94,2.52,3.73-.17,5.71A31.26,31.26,0,0,0,124,50.62c-1.85,2.35-2.31,6-6.73,5.24-.63-.11-2.18,2-2.39,3.21-1.25,7.16-2.22,14.37-3.36,22,12.75-4.66,23.54-12,31-23.83,5.52-8.8,7.49-18.1,3.31-28a15.81,15.81,0,0,0-2.85-4.58c-4.63-5-6.33-5-10.71-.06-3.13-2.27-3.15-5.88-1-7.67,2.61-2.14,6.84-4.11,9.9-3.55,6.37,1.17,10.34,6.14,12.88,12.13,6.09,14.33,1.33,26.71-7.07,38.22-6.55,9-15.82,14.58-25.76,19.11-2.24,1-4.51,2-8.21,3.54,2.61,1.21,3.9,1.91,5.27,2.44,14.61,5.62,26.48,14.51,34.08,28.5,7,12.87,4.84,30.64-4.59,38.85-3.35,2.92-6.87,4.24-11.43,3.29-6.24-1.3-8-5.15-4.5-10.77,7.89,4.61,14,.43,15.81-10.81,1.69-10.68-2-19.95-8.85-27.62-7.41-8.31-16-15.47-27-18.19.84,7,1.52,13.93,2.63,20.83.25,1.54,2.09,4.07,3.08,4,4.18-.23,4.91,2.75,6.62,5.35a19.93,19.93,0,0,0,6.09,5.6c2.57,1.59,2.31,3.15.55,4.7-1.59,1.4-3.52,3.09-5.46,3.31-5.38.62-7,4.33-8.42,8.58-.47,1.41-.89,3.16-1.93,3.95-.88.66-2.65.22-4,.1-.29,0-.63-.77-.75-1.24-1.8-7-6.6-10.77-13.06-13.48-4.53-1.9-4.19-3.54-.09-6.29a17.91,17.91,0,0,0,4.81-4.89c1.82-2.73,2.31-6.77,7.22-5.69.34.07,1.78-2.1,1.65-3.1-.68-5.23-.92-10.72-2.77-15.56-3.2-8.38-15.1-9.65-20.23-5.49C84.39,95.45,80.12,97,76.26,99c-.26.14-.82.2-.94,0-2.91-3.64-7.63-3.18-11.21-5a30.18,30.18,0,0,0-20.86-2.36c-5.16,1.19-9.25,1.87-14.15-.35-4-1.8-8.47-2.43-12.74-3.58Zm95.53,57.94h2.33c.56-4.79,1.12-9.59,1.7-14.59l8,3.53a63.18,63.18,0,0,0-9-11.43c-.66-.69-2.87-1-3.41-.5-3.72,3.52-7.19,7.32-10.73,11a5.34,5.34,0,0,0,4.18,0c5.18-2.3,5.34-2.17,5.74,3.55C110.82,138.13,111.41,140.93,111.83,143.73Zm-1.69-99.94-8.74-3.5a44.64,44.64,0,0,0,8.45,10.2c1.16,1,4.46,1.14,5.52.23,3.5-3,6.41-6.71,10-10.58l-9.7,3.57c-.58-5-1.12-9.73-1.65-14.42l-2.67,0C110.93,34,110.55,38.69,110.14,43.79Z" transform="translate(-16.3 -13.28)"/></svg>