<svg xmlns="http://www.w3.org/2000/svg" viewBox="0 0 544.91 544.91"><defs><style>.a{fill:none;}.b{fill:#ff7cb3;}</style></defs><rect class="a" width="544.91" height="544.91"/><path class="b" d="M400.63,326.5c3.06,2.4,6.09,4.83,9.18,7.18,10.85,8.23,21.33,16.89,29.82,27.65a113.67,113.67,0,0,1,24.87,65c.51,8.41.58,16.77-1.2,25-2.08,9.62-6.67,17.8-15.32,23-8.45,5.12-17.42,5-26.38,1.51-3-1.17-5.68-3.12-8.58-4.59a39.4,39.4,0,0,0-5.17-2.1c-1.85-.64-2.55.15-2.25,2.05.56,3.54,1.14,7.09,1.56,10.65,1.39,11.7-.81,22.25-10.58,29.94a27.58,27.58,0,0,1-20.77,5.63c-10.65-1.2-21.11-3.32-31.08-7.42a105.17,105.17,0,0,1-30.09-18.79A126.58,126.58,0,0,1,286.58,455c-4-7.67-6.6-16.09-9.73-24.22a123.79,123.79,0,0,0-4.63-11.63c-.43.93-.89,1.85-1.27,2.81-4.12,10.49-7.87,21.15-12.44,31.44a105.86,105.86,0,0,1-19.06,28.4c-13.6,14.84-30.17,25-49.06,31.56-10.29,3.57-20.69,5.85-31.69,3.39-14.41-3.22-24.56-17.61-22.41-32.28.47-3.2,1.45-6.32,1.9-9.52a55.12,55.12,0,0,0,.05-7c-1.48.59-2.4.92-3.3,1.32-5.06,2.28-10,5.1-15.2,6.76-17.9,5.68-33.72-4.22-37.54-22.89-3.73-18.2-3.33-36.18,2.33-53.93a117.92,117.92,0,0,1,15.6-31,130,130,0,0,1,33.49-33.59c3.64-2.51,7.08-5.31,10.61-8l-.11-.72-8.18-.59c-10.14-.69-20.34-.89-30.41-2.16a108.17,108.17,0,0,1-44.87-16.54c-14.88-9.47-26.77-22-36.41-36.64a47.26,47.26,0,0,1-8.15-23.09c-.81-12.93,8-25.64,20.63-29.11,4.09-1.13,8.41-1.36,12.6-2.14,2.19-.41,4.33-1.13,7.17-1.9l-3.31-3.8c-3.72-4.23-7.91-8.13-11.09-12.74a27.55,27.55,0,0,1,7.73-39.38,105.33,105.33,0,0,1,30.9-13.39c20.66-5.35,41-3.6,61.13,2.72a134.18,134.18,0,0,1,40.47,21.17c2.87,2.15,5.89,4.09,8.86,6.1a22.86,22.86,0,0,0,2.32,1.14l-2.72-9.6c-3.19-11.18-6.42-22.34-7.75-34A112,112,0,0,1,190,77.08a119.73,119.73,0,0,1,22.23-36.33c6.57-7.33,14.56-12.59,24.63-13.43,13.19-1.09,22.32,5.48,28.73,16.42,1.33,2.27,2,4.9,3.26,7.24,1.07,2,2.48,3.91,4.11,6.43,1.85-3.47,3.26-6.15,4.72-8.81,3-5.47,6-10.89,11-14.93,10.26-8.26,23.94-8.75,34.4-.71a100.5,100.5,0,0,1,24,27.14,99,99,0,0,1,14.44,42.37c1.84,17.54,1.38,35-4,52-1.91,6-3.77,12.07-5.63,18.11a4.88,4.88,0,0,0-.08,2.86c2.43-1.6,4.89-3.18,7.3-4.81,9.93-6.69,19.79-13.47,30.75-18.45a114.42,114.42,0,0,1,39-10.15,118.65,118.65,0,0,1,54.42,8.85c8.89,3.62,16.52,9,21.35,17.61a28.35,28.35,0,0,1-2.44,31.14c-2.66,3.29-6,6-8.92,9.12-1.55,1.63-2.87,3.47-4.66,5.67,1.7.49,2.7.87,3.74,1.07,3.94.76,7.93,1.3,11.84,2.21,11.74,2.73,20.41,9.06,23.68,21.2,1.93,7.16.61,14.1-2.46,20.71-6.9,14.85-16.11,28-28.82,38.46-11.16,9.21-23.77,15.71-37.39,20.38a129.86,129.86,0,0,1-46.43,6.8c-3.91-.12-7.82,0-11.73,0C400.89,325.67,400.76,326.09,400.63,326.5Zm-212.8-49.56a21.19,21.19,0,0,1-.73,2.75c-2.07,4.87-.78,12,2.77,15,6.1,5.19,13.89,4.7,19.53-1.11a4.88,4.88,0,0,1,3.08-1.42c10.52-.1,21-.05,31.56-.07a3.24,3.24,0,0,1,3.58,2.59c.52,1.95,2,3.59-.27,5.74-7.58,7.28-14.88,14.86-22.39,22.22-.77.76-2.18.94-3.34,1.21-2.39.54-5,.54-7.17,1.52-5.59,2.52-8.23,9.61-6.26,15.76A13,13,0,0,0,222.43,350c6.44-.92,11.24-6,11.14-12.35a7.65,7.65,0,0,1,2.49-6.08c7.06-6.94,14.05-14,21.05-21,1.15-1.14,2.06-2.42,4.09-1.25s4.28,1.5,4.2,4.84c-.23,10.17,0,20.35-.15,30.53a6.24,6.24,0,0,1-1.67,4,13.44,13.44,0,0,0-4,12.15,12.88,12.88,0,0,0,10.27,10.52c5.12,1,10.84-1.29,13.43-5.46,3.6-5.77,2.85-12.09-1.88-17.14a6.05,6.05,0,0,1-1.66-3.25c-.31-3.48-.38-7-.37-10.5,0-6.66.42-13.33.16-20-.11-2.84.35-4.55,3.21-5.21a2.61,2.61,0,0,0,.93-.42c1.38-1,2.43-.59,3.56.55,7.58,7.66,15.24,15.24,22.76,22.94a5.28,5.28,0,0,1,1.15,3.38c.07,3.93,1.06,7.36,4,10.14a13.14,13.14,0,0,0,21.62-13.52,13.31,13.31,0,0,0-13.71-9,4.17,4.17,0,0,1-2.9-1c-7.74-7.62-15.4-15.32-23.06-23a3.17,3.17,0,0,1-1-1.68,6,6,0,0,1,5.73-6.05c9.84,0,19.67,0,29.51,0a5.9,5.9,0,0,1,4.89,2.15,13,13,0,0,0,14.61,3,12.78,12.78,0,0,0,8-11.8,13.12,13.12,0,0,0-7.64-12.34A13.77,13.77,0,0,0,336.26,276a6.62,6.62,0,0,1-3.86,2c-10.52.17-21,0-31.56.16-3.4.05-3.2-2.66-4.33-4.48-1-1.65.08-2.49,1.05-3.46,7-7,14.06-14,21-21.06a8.18,8.18,0,0,1,6.46-2.82c6.14.07,11.16-4.54,12.2-10.73a13.11,13.11,0,0,0-8.3-14.59c-8.84-3.09-17.43,3-17.62,12.44a6.31,6.31,0,0,1-1.13,3.95c-7,7.18-14.29,14-21.06,21.37-2.72,3-5.08,2.77-7.93,1.12a3.46,3.46,0,0,1-1.62-2.41c0-10.68,0-21.36.21-32a6.37,6.37,0,0,1,1.78-3.91,13.69,13.69,0,0,0,.29-19c-4.64-4.78-13.74-4.91-18.43-.25a13.35,13.35,0,0,0,.05,19.1,5.88,5.88,0,0,1,1.93,4.73c-.06,10.09,0,20.18,0,30.28,0,1.54.21,3.16-1.86,3.69s-4,2.41-6.41-.17c-6.73-7.16-13.71-14.1-20.76-20.95a7.54,7.54,0,0,1-2.71-6.21c.21-5.18-2.62-8.75-7-11.06a12.42,12.42,0,0,0-12.74.38,13.16,13.16,0,0,0,6.73,24.41,7,7,0,0,1,4.33,1.46c7.63,7.35,15.09,14.89,22.6,22.36.93.92,2,1.8.95,3.28-1.18,1.73-.85,4.6-4.27,4.55-10.61-.14-21.21,0-31.82-.1a4.92,4.92,0,0,1-3.07-1.35c-6.06-6-13-6.35-19.41-1A13.15,13.15,0,0,1,187.83,276.94Z"/></svg>