<svg xmlns="http://www.w3.org/2000/svg" viewBox="0 0 582.95 742.5"><defs><style>.a{fill:none;}.b{fill:#d9f297;}.c{fill:#97e9ff;}.d{fill:#8949ce;}.e{fill:#6f3599;}.f{fill:#563b00;}</style></defs><rect class="a" width="582.95" height="742.5"/><path class="b" d="M106.23,613.63c-3.55,6,22.64,21.56,22.64,21.56S30.22,637.65,29.46,668C27.5,745.69,494.83,729,502,683.91c3.68-23.31-43-28.22-43-28.22s94.18,3.33,94.5-20.87C554.31,574.31,132.17,569.9,106.23,613.63Z"/><path class="c" d="M506,254.46c-99.22-24.56-1.41-64.58-48.43-137.53C429.2,78.72,387,60,343.65,60.51,225.75,61.81,36.21,165.68,51.83,306c5,44.67-21.56,79.72-14.51,122.63,13.5,79,125.57,99.65,183.79,104.05,97.32,69.58,329.79,46,263.05-135C546.69,379.15,576.59,293.1,506,254.46Zm-3.47,44.74c-.4-.32-1.64-1.34-1.64-1.38C501.2,297.74,501.87,298.41,502.57,299.2ZM72,417.68c.4,1.56.16,2.3,0,0Zm101.74,68.24a10.44,10.44,0,0,0-1.62-.86C171.72,484.62,173.12,485,173.78,485.92Z"/><path class="c" d="M511.72,402.14c1-.71-.51,1-.94,1A5.55,5.55,0,0,1,511.72,402.14Z"/><path class="c" d="M510.59,403.38c.74-.32,0,.34-.72.93C510.12,404,510.37,403.67,510.59,403.38Z"/><path class="c" d="M509.63,410.28c0-.3,0-.7,0-1.16C509.73,409.34,509.75,410.55,509.63,410.28Z"/><path class="c" d="M178.55,45h0Z"/><path class="c" d="M97.75,424.23c.4,1.56.16,2.3,0,0Z"/><path class="d" d="M574.61,423.84c-11.39,113.6-1.55,182.06-143.92,163.37-59.15-7.21-92.58-69.53-153.3-74.45-517.8,24.48-139.62-562.25,29-386.37,29.44,32.81,75,9.35,111.82,21.82C482.55,190.85,576.48,344.19,574.61,423.84Z"/><path class="e" d="M559.16,434.07C548.42,541.1,557.7,605.6,423.57,588c-55.73-6.8-87.23-65.51-144.44-70.14-487.85,23.06-131.54-529.74,27.32-364,27.74,30.92,70.67,8.81,105.36,20.56C472.42,214.55,560.92,359,559.16,434.07Z"/><path class="d" d="M335.46,586.77c.05.29.08.44.08.44C335.51,587.06,335.49,586.92,335.46,586.77Z"/><polygon class="f" points="200.75 294.33 236.8 213.27 205.26 306.86 200.75 294.33"/><polyline class="f" points="207 365.55 179.2 159.57 219.08 375.92 207 365.55"/><polygon class="f" points="243.88 415.29 98.05 271.96 248.16 400.9 243.88 415.29"/><polyline class="f" points="387.56 429.82 409.15 366.72 391 429.61 387.56 429.82"/><polygon class="f" points="357.36 338.31 431.35 305.34 357.56 341.62 357.36 338.31"/><path class="f" d="M328.87,477.19c-7.5,21.87,5.5,102.87,6.59,109.58,0,.15.05.29.08.44,4.29,27.35-24.61,71.17-24.61,71.17l-88.42-1.22s62-41.88,61.75-68.16-38.54-48.93-43.19-60.48-8.74-57.31-23.06-76.17c-6.34-8.36-96.35-64-120.36-78.16,26.6,14,119.32,66.84,123.43,63.51,8.69-7,133.81-216.57,136.74-221.48-2.71,5-113.68,210.71-112.93,223.17s10.87,57.17,22.56,67.81c5.78,5.26,21.46,18.21,36.34,33.27,0,0-4.23-86.84-.93-101.31,22-59.36,88.95-178.9,90.38-181.43-1.13,2.8-76.72,188.71-69.88,196.13,5,5.42,126.06-51.75,170.36-76C451,401.93,334.51,460.79,328.87,477.19Z"/><polygon class="f" points="322.95 402.84 293.36 275.14 328.05 390.92 322.95 402.84"/><polygon class="f" points="283.39 346.11 269.06 185.68 273.8 355.39 283.39 346.11"/><polygon class="f" points="248.16 484.88 375.14 392.32 246.27 476.45 248.16 484.88"/><polygon class="f" points="413.18 496.91 500.18 431.73 417.82 498.27 413.18 496.91"/><polygon class="f" points="372.55 498.27 424.36 543 384.55 498.27 372.55 498.27"/><polygon class="f" points="318.55 499.36 523.64 511.09 318.55 476.45 318.55 499.36"/><polygon class="f" points="155.86 325.23 130.5 216.22 166.09 332.59 155.86 325.23"/><path class="f" d="M205.36,437.3C204,436.64,95.18,444,95.18,444l115.64-3.37Z"/><polygon class="f" points="190.64 429.82 166.09 372.55 197.73 431.73 190.64 429.82"/></svg>