<svg xmlns="http://www.w3.org/2000/svg" viewBox="0 0 582.95 742.5"><defs><style>.a{fill:none;}.b{fill:#d9f297;}.c{fill:#97e9ff;}.d{fill:#bc450f;}.e{fill:#9e3e18;}.f{fill:#563b00;}</style></defs><rect class="a" width="582.95" height="742.5"/><path class="b" d="M106.23,613.63c-3.55,6,22.64,21.56,22.64,21.56S30.22,637.65,29.46,668C27.5,745.69,494.83,729,502,683.91c3.68-23.31-43-28.22-43-28.22s94.18,3.33,94.5-20.87C554.31,574.31,132.17,569.9,106.23,613.63Z"/><path class="c" d="M506,254.46c-99.22-24.56-1.41-64.58-48.43-137.53C429.2,78.72,387,60,343.65,60.51,225.75,61.81,36.21,165.68,51.83,306c5,44.67-21.56,79.72-14.51,122.63,13.5,79,125.57,99.65,183.79,104.05,97.32,69.58,329.79,46,263.05-135C546.69,379.15,576.59,293.1,506,254.46Zm-3.47,44.74c-.4-.32-1.64-1.34-1.64-1.38C501.2,297.74,501.87,298.41,502.57,299.2ZM72,417.68c.4,1.56.16,2.3,0,0Zm101.74,68.24a10.44,10.44,0,0,0-1.62-.86C171.72,484.62,173.12,485,173.78,485.92Z"/><path class="c" d="M511.72,402.14c1-.71-.51,1-.94,1A5.55,5.55,0,0,1,511.72,402.14Z"/><path class="c" d="M510.59,403.38c.74-.32,0,.34-.72.93C510.12,404,510.37,403.67,510.59,403.38Z"/><path class="c" d="M509.63,410.28c0-.3,0-.7,0-1.16C509.73,409.34,509.75,410.55,509.63,410.28Z"/><path class="c" d="M178.55,45h0Z"/><path class="c" d="M97.75,424.23c.4,1.56.16,2.3,0,0Z"/><path class="d" d="M527.87,462.09C359,654.56,405.59,495.78,221,533-46.15,542.72,56.7,455.09,25.76,281.31c-5.85-34.45,36.87-23.15,55.85-34.56,21.94-13.4,43.12-28.31,69.45-31.29,67.09-12.08,51.88-103.25,101.25-136.67,64.84-53.09,127.35,1.15,181.79,37.26,22,6.52,44.11,12,53.75,35.6,23.77,45.5-36,80.61-30.09,119.67,40.08,6,47.67,49.78,21.07,76.13C553.37,329.44,586.19,419.15,527.87,462.09Z"/><path class="e" d="M510,468.56C353.23,647.21,396.48,499.83,225.13,534.4c-248,9-152.49-72.34-181.21-233.65-5.44-32,34.22-21.48,51.84-32.07,20.36-12.45,40-26.28,64.46-29.05,62.28-11.22,48.16-95.84,94-126.86,60.19-49.28,118.22,1.06,168.74,34.58,20.39,6.06,40.95,11.19,49.9,33.05,22.06,42.24-33.38,74.82-27.93,111.08,37.2,5.58,44.24,46.21,19.56,70.66C533.65,345.43,564.12,428.7,510,468.56Z"/><polygon class="f" points="264.81 603.25 194.79 529.86 175.17 361.77 217.99 515.65 290.98 564.62 264.81 603.25"/><polygon class="f" points="229 653.61 289.9 533.28 314.6 125.21 327.71 523.65 419.45 410.62 327.94 593.67 339.19 653.92 229 653.61"/><polygon class="f" points="310.23 246.57 248.78 154.49 311.22 230.25 310.23 246.57"/><path class="f" d="M248.12,362.21C248.26,360,243,249.46,243,249.46l-5.71,94.47Z"/><polygon class="f" points="267.04 386.01 211.39 378.6 274.15 399.78 267.04 386.01"/><polygon class="f" points="303.21 448.7 184.01 273.19 304.39 429.16 303.21 448.7"/><polygon class="f" points="204.47 492.86 246.83 432.88 210.32 511.09 204.47 492.86"/><polygon class="f" points="132.46 452.26 56.41 289.92 156.66 462.67 132.46 452.26"/><polygon class="f" points="198.06 500.42 65.79 421.92 195 468.96 198.06 500.42"/><polygon class="f" points="384.04 199.91 454.2 201.42 379.98 205.62 384.04 199.91"/><polygon class="f" points="313.19 283.74 414.49 160.3 315.98 299.17 313.19 283.74"/><polygon class="f" points="380.27 381.25 419.11 305.42 387.93 377.75 380.27 381.25"/><polygon class="f" points="315.27 421.63 454.91 341.46 316.08 408.27 315.27 421.63"/><path class="f" d="M385.6,465.35c7.15-1.33,93.89-25.59,93.89-25.59L373.58,491.81Z"/></svg>