<svg xmlns="http://www.w3.org/2000/svg" viewBox="0 0 544.91 544.91"><defs><style>.a{fill:none;}.b{fill:#7fc735;}</style></defs><rect class="a" width="544.91" height="544.91"/><path class="b" d="M357.1,491.6c-9.67,12.27-24,13.79-36.67,15.12-8.73.92-17,1.79-22.64,6.13-8,6.12-22,15.52-26.86,18.78-4.89-3.26-18.87-12.65-26.85-18.78-5.57-4.27-13.8-4.79-22.53-5.34-6.86-.44-13.85-.87-20.19-2.94A29,29,0,0,1,185,491.88c-9.12-14.61-9.47-33.72-4.59-54.52l.48-.45c9.37-9,18.94-20.5,28.6-34.25a14.07,14.07,0,0,0,1.33.72,13.59,13.59,0,0,0,18.07-6.53l33.2-90.53c1.22-2.75,2.35-5.36,3.41-7.82.48.13,1,.23,1.47.33L253.91,403a13.58,13.58,0,1,0,27.15,1l-5.23-104.88.73-.11c4.67,13.13,11.36,30.7,19.73,49.55l0,0,17.54,49.65a13.58,13.58,0,0,0,12.55,8,240.43,240.43,0,0,0,24.78,33.51,137.77,137.77,0,0,0,14.73,14.21C367.25,468.55,364.94,481.65,357.1,491.6Z"/><path class="b" d="M510.09,229.34a28.71,28.71,0,0,1-3.88,14.37c-9.83,17.42-30.78,27.49-56.27,32.87a259.29,259.29,0,0,0-32.91-6.7,13.59,13.59,0,0,0-13.48-11.5l-86.71,7.88c-6.5.27-12.51.6-17.88.95a28.4,28.4,0,0,0-1.06-4l96.15-43a13.6,13.6,0,0,0-13.22-23.76l-87.18,59a27.08,27.08,0,0,0-2.53-2.82l66.16-81.88a13.59,13.59,0,0,0-3.23-18.54A246.45,246.45,0,0,0,367,118.84c18-17.75,37.48-29.34,56.56-26.1,15.41,2.61,23.61,14.48,30.84,25,5,7.22,9.7,14,16.23,16.94,9.19,4.08,24.14,11.85,29.34,14.58-.52,5.85-2.07,22.63-3.62,32.57-1.08,6.94,2.41,14.41,6.1,22.33C506.21,212.25,510.09,220.58,510.09,229.34Z"/><path class="b" d="M148.78,196.41a13.59,13.59,0,0,0,4.52,18.68l93.8,46.61a26.31,26.31,0,0,0-1.23,3.7c-4.39-.57-9.24-1.16-14.44-1.73l-89.26-13.49A13.59,13.59,0,0,0,128,261a245.66,245.66,0,0,0-39,6.25c-23.31-6.58-42.1-17.43-48.71-34.91-5.52-14.62.58-27.68,6-39.21,3.71-7.95,7.22-15.46,6.42-22.56-1.13-10-2-26.82-2.23-32.69,5.31-2.51,20.58-9.64,29.94-13.32C86.91,122,91.6,115.21,96.57,108c7.82-11.31,15.91-23,32.26-23.27h.71c15.29,0,30.12,7.7,44,20q.67,3.33,1.56,6.78c3.27,12.76,8.6,26.92,15.93,42.33a13.59,13.59,0,0,0,.21,14l32.22,42.77c10.79,16.52,21.4,31.16,29.68,42.1-.46.45-.89.91-1.31,1.38L167.46,191.9A13.59,13.59,0,0,0,148.78,196.41Z"/><path class="b" d="M361.41,115.38q-1,3.34-2.09,6.74Q358,126,356.53,130c-2.45,6.53-5.26,13.12-8.34,19.7a13.58,13.58,0,0,0-13.46,5.82l-50.9,92a26.79,26.79,0,0,0-6.7-2.16l9.08-104a13.59,13.59,0,1,0-27.17,0l9.07,103.83A27.42,27.42,0,0,0,262,247L214.3,153.47A13.58,13.58,0,0,0,195.81,149a234.42,234.42,0,0,1-13.69-36.07h0c-.56-2-1.07-4-1.54-6h0c-.42-1.83-.81-3.63-1.15-5.42-3.59-18.86-2.31-35.95,7.35-48.22s24-13.79,36.67-15.12c8.73-.92,17-1.79,22.64-6.13,8-6.12,22-15.52,26.85-18.78,4.89,3.26,18.87,12.66,26.86,18.78,5.57,4.27,13.8,4.79,22.53,5.34,13.73.86,27.93,1.76,36.57,15.63C369.12,69.43,368.31,91.54,361.41,115.38Z"/><path class="b" d="M204.92,398.08a260.8,260.8,0,0,1-21,26.5c-1.59,1.74-3.2,3.43-4.81,5.06q-2.19,2.21-4.41,4.29c-16,14.9-33.11,24.18-50.23,21.68-15.45-2.26-23.92-13.93-31.39-24.23-5.16-7.11-10-13.82-16.62-16.57-9.28-3.86-24.4-11.29-29.67-13.9.38-5.86,1.55-22.67,2.87-32.64.93-7-2.73-14.36-6.6-22.19C37,333.75,30.68,321,38.38,306.58c8.79-16.46,27.39-26.69,50.41-32.75,2.14-.58,4.33-1.11,6.55-1.6q3.82-.86,7.77-1.58c8.07-1.47,16.5-2.54,25.11-3.28a13.59,13.59,0,0,0,12.24,9.93l104.69-2.54a27.32,27.32,0,0,0,1.69,7.2L152,328.42a13.59,13.59,0,1,0,14,23.27l85.28-62.15a27.24,27.24,0,0,0,5.58,5.08l-52.63,90.69A13.59,13.59,0,0,0,204.92,398.08Z"/><path class="b" d="M494.53,360.1c-4,7.81-7.8,15.19-7.26,22.31.75,10,1,26.87,1,32.75-5.39,2.31-20.92,8.86-30.41,12.2-6.63,2.32-11.57,8.93-16.81,15.92-8.1,10.85-16.47,22.07-32.3,22.07H408c-12.57-.27-24.62-5.72-36-14.62-1.19-.94-2.39-1.92-3.57-2.93s-2.55-2.24-3.82-3.41h0c-11.42-10.66-22.07-24.6-31.75-39.91A13.59,13.59,0,0,0,338.58,387l-51.84-91.84a27.32,27.32,0,0,0,5.26-4.33l81.66,66.38A13.58,13.58,0,1,0,388.9,334.7L297,283.47a27,27,0,0,0,2.06-6.7l104.63,8.78a13.59,13.59,0,0,0,12.86-9.32c5.91.85,11.77,1.85,17.52,3,2.85.59,5.67,1.23,8.44,1.92h0c2.42.59,4.79,1.22,7.13,1.89h0c25.38,7.28,46,19.1,52.36,38.05C506.93,336,500.34,348.78,494.53,360.1Z"/></svg>