<svg xmlns="http://www.w3.org/2000/svg" viewBox="0 0 582.95 742.5"><defs><style>.a{fill:none;}.b{fill:#d9f297;}.c{fill:#97e9ff;}.d{fill:#bcf244;}.e{fill:#7fc735;}.f{fill:#563b00;}</style></defs><rect class="a" width="582.95" height="742.5"/><path class="b" d="M106.23,613.63c-3.55,6,22.64,21.56,22.64,21.56S30.22,637.65,29.46,668c-2,77.69,465.37,61,472.54,15.91,3.68-23.31-43-28.22-43-28.22s94.18,3.33,94.5-20.87C554.31,574.31,132.17,569.9,106.23,613.63Z"/><path class="c" d="M506,254.46c-99.22-24.56-1.41-64.58-48.43-137.53C429.2,78.72,387,60,343.65,60.51,225.75,61.81,36.21,165.68,51.83,306c5,44.67-21.56,79.72-14.51,122.63,13.5,79,125.57,99.65,183.79,104,97.32,69.58,329.79,46,263.05-135C546.69,379.15,576.59,293.1,506,254.46Zm-3.47,44.74c-.4-.32-1.64-1.34-1.64-1.38.31-.08,1,.59,1.68,1.38ZM72,417.68C72.4,419.24,72.16,420,72,417.68Zm101.74,68.24a10.91,10.91,0,0,0-1.62-.86c-.4-.44,1-.06,1.66.86Z"/><path class="c" d="M511.72,402.14c1-.71-.51,1-.94,1A5.57,5.57,0,0,1,511.72,402.14Z"/><path class="c" d="M510.59,403.38c.74-.32,0,.34-.72.93C510.12,404,510.37,403.67,510.59,403.38Z"/><path class="c" d="M509.63,410.28v-1.16C509.73,409.34,509.75,410.55,509.63,410.28Z"/><path class="c" d="M178.55,45Z"/><path class="c" d="M97.75,424.23C98.15,425.79,97.91,426.53,97.75,424.23Z"/><path class="d" d="M484.93,341.43c-19.27,51.76,7.88,117.48-36.21,157.9.18,20.72-.6,44.11-20.76,56.36-54.12,23.73-160.93,30.35-213.85,6-46.62,6.7-83.57-37.06-69.43-82-17.77-9.95-33.15-23.66-37.7-44.84-9.31-22.43,15.51-38.92,13-57.58-14.49-22.51-27.24-47.42-19.77-75,5.24-27.6,24.21-49.6,31.14-76.41-.64-33.15,13.8-57,40.39-75.47-18.57-72.45,35.72-90.5,95-107,147.46-44.13,83.37,17.92,163.54,58,55.74,19.85,28.62,83.67,33,127.89C463.6,268.07,483.74,303.13,484.93,341.43Z"/><path class="e" d="M471,358.37c-17.89,48,7.31,109-33.62,146.55.17,19.23-.56,40.93-19.26,52.3-50.23,22-149.37,28.17-198.48,5.55a58.66,58.66,0,0,1-64.43-76.08c-16.5-9.23-30.78-22-35-41.62-8.63-20.82,14.4-36.12,12.08-53.44-13.45-20.89-25.28-44-18.35-69.57,4.86-25.62,22.47-46,28.9-70.91-.6-30.77,12.81-52.9,37.48-70.05-17.23-67.24,33.16-84,88.18-99.31,136.87-40.95,77.38,16.64,151.78,53.79C472,154,446.85,213.23,450.88,254.27,451.22,290.28,469.91,322.82,471,358.37Z"/><polygon class="f" points="297.09 569.35 445.02 476.21 298.42 549.71 297.09 569.35"/><path class="f" d="M330.35,324.3c0-.5,26.83-240,26.83-240L317.91,314.66Z"/><polygon class="f" points="265.02 657.51 272.93 538.92 199.34 401.47 172.82 206.26 219.45 390.75 288.37 509.35 308.89 321.63 218.09 125.18 330.35 324.31 304.74 546.13 310.6 657.51 265.02 657.51"/><polygon class="f" points="280 568.83 173.78 530.59 280 549.71 280 568.83"/><polygon class="f" points="222.32 543.27 172.05 488.86 229.27 545.32 222.32 543.27"/><polygon class="f" points="251.58 488.86 139.68 410.32 245.23 473.73 251.58 488.86"/><path class="f" d="M181.27,437.45c-.68.28-40.22,2.32-40.22,2.32l41.86-1.16Z"/><path class="f" d="M196.41,447.41c0-.41-8-27.68-8-27.68l10.91,29.18Z"/><polygon class="f" points="199.34 401.47 121.07 328.7 202.68 395.39 199.34 401.47"/><path class="f" d="M158.7,361.23c.25-1.58-13.9-54.82-13.9-54.82l18,58.68Z"/><path class="f" d="M260.64,479.73c.81-1.91,1.91-120.28,1.91-120.28L254.91,468Z"/><path class="f" d="M259.82,439.77c-.27-1.77-12.55-54.68-12.55-54.68l12.55,47.73Z"/><polygon class="f" points="219.45 390.75 236.64 257.32 212.91 383.32 219.45 390.75"/><polygon class="f" points="224.77 332.18 217.41 279 223.03 339.85 224.77 332.18"/><polygon class="f" points="184.27 259.64 205.27 182.73 185.64 269.73 184.27 259.64"/><polygon class="f" points="305.77 387.82 259.82 314.66 309.45 373.5 305.77 387.82"/><polygon class="f" points="303.32 294.95 234.18 239.32 296.77 279 303.32 294.95"/><path class="f" d="M268.75,264.27c-1-3.68-21.48-38-21.48-38l18.11,36.41Z"/><polygon class="f" points="241.54 170.59 184.27 146.66 244.41 177.75 241.54 170.59"/><polygon class="f" points="251.58 192.07 258.01 95.93 256.07 199.23 251.58 192.07"/><path class="f" d="M326.09,288.27,293.36,201s34.91,77.45,34.91,78S326.09,288.27,326.09,288.27Z"/><path class="f" d="M332.64,257.32c3-4.23,97.91-77.87,97.91-77.87l-94.91,63.28Z"/><path class="f" d="M383.64,213.27c2.41.92,41.45,1.37,41.45,1.37l-47.18,3.75Z"/><polygon class="f" points="339.45 201 284.64 88.09 342.45 189.27 339.45 201"/><path class="f" d="M328.27,171.27c.82-1.36-1.63-65.18-1.63-65.18l-1.91,56.11Z"/><path class="f" d="M284.64,348.41c-1.23-4-6.14-26.86-6.14-26.86l8.32,28.9Z"/><polygon class="f" points="359.36 524.46 399.05 472.09 368.36 520.91 359.36 524.46"/><polygon class="f" points="351.01 530.18 415.65 539.18 347.53 534.68 351.01 530.18"/><polygon class="f" points="305.77 498.27 403.95 395.18 303.32 479.73 305.77 498.27"/><path class="f" d="M338.91,454.09c.41-.82,15.75-41.66,15.75-41.66l-9.41,34.3Z"/><polygon class="f" points="368.57 427.7 413.98 420.55 364.48 433.26 368.57 427.7"/><path class="f" d="M319.68,359.45c1.64-1.9,130.91-3.13,130.91-3.13l-135,14.93Z"/><polygon class="f" points="386.36 359.45 437.09 306.41 377.91 359.45 386.36 359.45"/><polygon class="f" points="364.48 362.05 399.05 378 362.74 363.78 364.48 362.05"/><polygon class="f" points="343.41 361.13 362.74 339.75 340.03 359.9 343.41 361.13"/><path class="f" d="M328.27,303.75c2.05-.2,111.68-44.39,111.68-44.39L326.23,292.3Z"/><path class="f" d="M354.05,286.36c1.43-1.22,29-42.75,29-42.75L360.8,287.39Z"/><path class="f" d="M366.73,285.75c4.29,0,36.41,16.86,36.41,16.86L372.66,283.3Z"/></svg>