<svg xmlns="http://www.w3.org/2000/svg" viewBox="0 0 544.91 544.91"><defs><style>.a{fill:none;}.b{fill:#365941;}</style></defs><rect class="a" width="544.91" height="544.91"/><path class="b" d="M315.7,46.73c19.27,28.17,17.58,62.85,17.58,62.85s-32.93-11-52.19-39.18S263.51,7.54,263.51,7.54,296.44,18.55,315.7,46.73Z"/><path class="b" d="M256.22,72.13c-15.5,30.42-46.75,45.55-46.75,45.55s-6.12-34.17,9.38-64.59S265.59,7.54,265.59,7.54,271.71,41.72,256.22,72.13Z"/><path class="b" d="M315.7,111.16C335,139.34,333.28,174,333.28,174s-32.93-11-52.19-39.18S263.51,72,263.51,72,296.44,83,315.7,111.16Z"/><path class="b" d="M252.9,149.11c-15.49,30.42-46.74,45.55-46.74,45.55s-6.12-34.17,9.38-64.59,46.74-45.55,46.74-45.55S268.4,118.7,252.9,149.11Z"/><path class="b" d="M315.7,176.78C335,205,333.28,239.63,333.28,239.63s-32.93-11-52.19-39.18-17.58-62.85-17.58-62.85S296.44,148.6,315.7,176.78Z"/><path class="b" d="M252.9,224.44C237.41,254.85,206.16,270,206.16,270s-6.12-34.18,9.38-64.59,46.74-45.55,46.74-45.55S268.4,194,252.9,224.44Z"/><path class="b" d="M315.7,245.78C335,274,333.28,308.64,333.28,308.64s-32.93-11-52.19-39.18-17.58-62.86-17.58-62.86S296.44,217.61,315.7,245.78Z"/><path class="b" d="M252.9,299.76c-15.49,30.41-46.74,45.55-46.74,45.55s-6.12-34.18,9.38-64.59,46.74-45.55,46.74-45.55S268.4,269.35,252.9,299.76Z"/><path class="b" d="M315.7,311.1C335,339.28,333.28,374,333.28,374s-32.93-11-52.19-39.19-17.58-62.85-17.58-62.85S296.44,282.93,315.7,311.1Z"/><path class="b" d="M252.9,376.74c-15.49,30.41-46.74,45.55-46.74,45.55s-6.12-34.18,9.38-64.59,46.74-45.55,46.74-45.55S268.4,346.33,252.9,376.74Z"/><path class="b" d="M319,380.4c19.26,28.18,17.57,62.86,17.57,62.86s-32.93-11-52.19-39.18-17.58-62.86-17.58-62.86S299.75,352.23,319,380.4Z"/><path class="b" d="M256.22,450.41C240.72,480.82,209.47,496,209.47,496s-6.12-34.18,9.38-64.59,46.74-45.55,46.74-45.55S271.71,420,256.22,450.41Z"/><path class="b" d="M309.1,473.35c4.48,33.83-12.69,64-12.69,64S272,512.68,267.53,478.84s12.69-64,12.69-64S304.63,439.51,309.1,473.35Z"/><path class="b" d="M147.24,97.21c19.27,28.18,17.58,62.85,17.58,62.85s-32.93-11-52.2-39.18S95.05,58,95.05,58,128,69,147.24,97.21Z"/><path class="b" d="M87.75,122.62C72.26,153,41,168.16,41,168.16S34.89,134,50.38,103.58,97.13,58,97.13,58,103.25,92.2,87.75,122.62Z"/><path class="b" d="M147.24,161.65c19.27,28.17,17.58,62.85,17.58,62.85s-32.93-11-52.2-39.18-17.57-62.85-17.57-62.85S128,133.47,147.24,161.65Z"/><path class="b" d="M84.44,199.6C68.94,230,37.7,245.14,37.7,245.14S31.58,211,47.07,180.56,93.82,135,93.82,135,99.94,169.18,84.44,199.6Z"/><path class="b" d="M147.24,227.26c19.27,28.18,17.58,62.86,17.58,62.86s-32.93-11-52.2-39.18-17.57-62.86-17.57-62.86S128,199.09,147.24,227.26Z"/><path class="b" d="M84.44,274.92c-15.5,30.41-46.74,45.55-46.74,45.55s-6.12-34.18,9.37-64.59,46.75-45.55,46.75-45.55S99.94,244.51,84.44,274.92Z"/><path class="b" d="M147.24,296.27c19.27,28.18,17.58,62.85,17.58,62.85s-32.93-11-52.2-39.18-17.57-62.85-17.57-62.85S128,268.09,147.24,296.27Z"/><path class="b" d="M84.44,350.25c-15.5,30.41-46.74,45.54-46.74,45.54s-6.12-34.17,9.37-64.58,46.75-45.55,46.75-45.55S99.94,319.83,84.44,350.25Z"/><path class="b" d="M147.24,361.59c19.27,28.17,17.58,62.85,17.58,62.85s-32.93-11-52.2-39.18S95.05,322.4,95.05,322.4,128,333.41,147.24,361.59Z"/><path class="b" d="M117.11,419.33c4.81,33.8-12,64.15-12,64.15S80.4,459,75.59,425.25s12-64.15,12-64.15S112.3,385.54,117.11,419.33Z"/><path class="b" d="M397.67,109.57c-19.27,28.18-17.58,62.86-17.58,62.86s32.93-11,52.2-39.18,17.57-62.86,17.57-62.86S416.93,81.4,397.67,109.57Z"/><path class="b" d="M457.16,135c15.49,30.41,46.74,45.55,46.74,45.55s6.12-34.18-9.37-64.59-46.75-45.55-46.75-45.55S441.66,104.57,457.16,135Z"/><path class="b" d="M397.67,174c-19.27,28.18-17.58,62.86-17.58,62.86s32.93-11,52.2-39.18,17.57-62.86,17.57-62.86S416.93,145.84,397.67,174Z"/><path class="b" d="M460.47,212c15.49,30.41,46.74,45.55,46.74,45.55s6.12-34.18-9.37-64.59-46.75-45.55-46.75-45.55S445,181.55,460.47,212Z"/><path class="b" d="M397.67,239.63c-19.27,28.18-17.58,62.85-17.58,62.85s32.93-11,52.2-39.18,17.57-62.85,17.57-62.85S416.93,211.45,397.67,239.63Z"/><path class="b" d="M460.47,287.29c15.49,30.41,46.74,45.54,46.74,45.54s6.12-34.17-9.37-64.58-46.75-45.55-46.75-45.55S445,256.87,460.47,287.29Z"/><path class="b" d="M397.67,308.63c-19.27,28.18-17.58,62.86-17.58,62.86s32.93-11,52.2-39.18,17.57-62.86,17.57-62.86S416.93,280.46,397.67,308.63Z"/><path class="b" d="M460.47,362.61C476,393,507.21,408.16,507.21,408.16s6.12-34.18-9.37-64.59S451.09,298,451.09,298,445,332.2,460.47,362.61Z"/><path class="b" d="M437.2,429.57c.92,34.12,22.63,61.22,22.63,61.22s20.21-28.23,19.29-62.35-22.63-61.22-22.63-61.22S436.28,395.45,437.2,429.57Z"/><path class="b" d="M397.67,374c-19.27,28.18-17.58,62.85-17.58,62.85s32.93-11,52.2-39.18,17.57-62.85,17.57-62.85S416.93,345.77,397.67,374Z"/></svg>