<svg xmlns="http://www.w3.org/2000/svg" viewBox="0 0 582.95 742.5"><defs><style>.a{fill:none;}.b{fill:#d9f297;}.c{fill:#97e9ff;}.d{fill:#4e723f;}.e{fill:#365941;}.f{fill:#563b00;}</style></defs><rect class="a" width="582.95" height="742.5"/><path class="b" d="M106.23,613.63c-3.55,6,22.64,21.56,22.64,21.56S30.22,637.65,29.46,668C27.5,745.69,494.83,729,502,683.91c3.68-23.31-43-28.22-43-28.22s94.18,3.33,94.5-20.87C554.31,574.31,132.17,569.9,106.23,613.63Z"/><path class="c" d="M506,254.46c-99.22-24.56-1.41-64.58-48.43-137.53C429.2,78.72,387,60,343.65,60.51,225.75,61.81,36.21,165.68,51.83,306c5,44.67-21.56,79.72-14.51,122.63,13.5,79,125.57,99.65,183.79,104.05,97.32,69.58,329.79,46,263.05-135C546.69,379.15,576.59,293.1,506,254.46Zm-3.47,44.74c-.4-.32-1.64-1.34-1.64-1.38C501.2,297.74,501.87,298.41,502.57,299.2ZM72,417.68c.4,1.56.16,2.3,0,0Zm101.74,68.24a10.44,10.44,0,0,0-1.62-.86C171.72,484.62,173.12,485,173.78,485.92Z"/><path class="c" d="M511.72,402.14c1-.71-.51,1-.94,1A5.55,5.55,0,0,1,511.72,402.14Z"/><path class="c" d="M510.59,403.38c.74-.32,0,.34-.72.93C510.12,404,510.37,403.67,510.59,403.38Z"/><path class="c" d="M509.63,410.28c0-.3,0-.7,0-1.16C509.73,409.34,509.75,410.55,509.63,410.28Z"/><path class="c" d="M178.55,45h0Z"/><path class="c" d="M97.75,424.23c.4,1.56.16,2.3,0,0Z"/><path class="d" d="M540.35,395.52c-9.51,92.63-66.83,203.08-173.15,199-91.88-6.17-210.33,11.69-280.35-59.18C12.27,421.06,23.84,255.93,142,175.9c4-5.87,3.23-11.27,3.54-17.75-4.77-38.33,31.06-85.25,69.85-57.87,21.07-33.9,68.72-43.11,104.3-26.95,47.17,19.44,68.86,66.3,84.2,111.91C507.78,194.43,555.08,301.65,540.35,395.52Z"/><path class="e" d="M516.35,414.71C507.76,498.42,456,598.22,359.9,594.49c-83-5.58-190,10.56-253.32-53.48C39.2,437.79,49.65,288.59,156.45,216.28c3.63-5.3,2.92-10.18,3.2-16-4.31-34.63,28.06-77,63.12-52.29,19-30.63,62.09-39,94.23-24.36,42.63,17.57,62.23,59.91,76.09,101.12C486.92,233,529.66,329.9,516.35,414.71Z"/><polygon class="f" points="243.14 659 258.39 563.58 158.71 512.41 82.47 369.33 164.57 499.51 143.46 255.57 180.99 492.47 264.25 537.04 325.24 487.78 291.48 137.12 346.35 478.74 446.03 262.61 366.29 494.82 302.95 569.87 313.51 659 243.14 659"/><path class="f" d="M222,522.18c1.32-7,27.37-233,27.37-233l-11.73,247Z"/><polygon class="f" points="313.51 541.73 475.35 491.18 333.06 510.45 313.51 541.73"/></svg>